<?xml version="1.0" encoding="utf-8"?>
<!-- Generator: Adobe Illustrator 19.1.0, SVG Export Plug-In . SVG Version: 6.00 Build 0)  -->
<svg version="1.1" id="Layer_1" xmlns="http://www.w3.org/2000/svg" xmlns:xlink="http://www.w3.org/1999/xlink" x="0px" y="0px"
	 viewBox="-388 166 183 230" style="enable-background:new -388 166 183 230;" xml:space="preserve">
<style type="text/css">
	.st0{fill-rule:evenodd;clip-rule:evenodd;fill:#FFFFFF;}
	.st1{fill:#1A1A18;}
	.st2{fill-rule:evenodd;clip-rule:evenodd;fill:#1A1A18;}
	.st3{fill-rule:evenodd;clip-rule:evenodd;fill:#C3181C;}
	.st4{fill-rule:evenodd;clip-rule:evenodd;fill:#972524;}
	.st5{fill-rule:evenodd;clip-rule:evenodd;fill:#E2000F;}
	.st6{fill:#FFFFFF;}
	.st7{fill:#C61729;}
	.st8{fill:#E2000F;}
</style>
<path class="st0" d="M-315.5,211.6c-5.2-18.7,1.1-19.5,19.9-21.2c19.3,0.8,24.2,3.4,18,21.8c-2.7,3.7-7.6-1.8-18.7-1.5
	C-307.5,211.1-313.6,216.4-315.5,211.6z M-214.7,204.5l-19.8,19.5l-11.9-10.1l7.9,14.1l-10.2,8.5c-1.8-2.2-3.7-4.3-5.8-6.3
	c2.3-4.7,4.3-9.9,5.9-15.4c7.2-24.6-1.2-48.2-47-47.8c-45.7,0.4-57.1,23.6-47,48.2c2.1,5,4.2,9.8,6.4,14.1c-3,2.7-5.8,5.7-8.1,8.9
	l-9.4-8l7.1-12.2l-10.8,8.8l-20.8-19.5l-8.3,9.7l22.9,18.1c-11,20.4-19.4,41.2-14.8,61.1l13.5-5.7c-2.6-20.4-3.6-36.9,5.8-52.4
	l10.4,7.1c-4.1,7.8-6.4,16.5-6.4,25.8c0,31.5,26.6,57,59.4,57s59.4-25.5,59.4-57c0-10.1-2.8-19.6-7.6-27.9l10.6-7.5
	c9.2,15.1,14.8,33.9,8.7,55.2l13.9,5.4c3.5-24.3-5.2-45.7-17.9-64.5l22.5-16.5L-214.7,204.5z"/>
<path class="st1" d="M-295.9,329c-33.3,0-60.4-26-60.4-58c0-9,2.1-17.6,6.2-25.5l-8.8-6c-8.8,15.3-7.5,32.1-5.1,50.8l0.1,0.7
	l-15.3,6.4l-0.3-1.1c-4.7-20.8,4.6-42.4,14.5-61l-23.1-18.3l9.7-11.2l20.9,19.6l13.4-11c-4.5-11.7-4-22.7,1.5-30.9
	c7.5-11.3,23.7-17.4,46.8-17.6c21.7-0.2,36.5,4.9,44.3,15.1c5.9,7.8,7.4,18.5,4.4,30.9l12.5,10.6l20-19.7l9.6,12.5l-22.6,16.5
	c14.9,22.2,20.6,43.3,17.6,64.4l-0.2,1.2l-15.8-6.2l0.2-0.9c5.1-17.8,2.4-35.8-8-53.5l-9,6.4c4.8,8.4,7.3,18,7.3,27.6
	C-235.6,303-262.6,329-295.9,329z M-359.6,236.8l11.9,8.2l-0.4,0.8c-4.2,7.9-6.3,16.4-6.3,25.4c0,30.9,26.2,56,58.4,56
	s58.4-25.1,58.4-56c0-9.6-2.6-19.1-7.4-27.4l-0.4-0.8l12.2-8.6l0.5,0.9c11,18.2,14.1,36.7,9,55.1l11.9,4.7
	c2.6-20.5-3.3-41-17.9-62.6l-0.5-0.8l22.5-16.4l-7.1-9.2l-19.7,19.4l-8.5-7.2l5.6,10.1l-11.5,9.6l-0.6-0.8c-1.7-2.2-3.7-4.3-5.7-6.2
	l-0.5-0.5l0.3-0.6c2.2-4.5,4.2-9.6,5.8-15.2c0.3-1,0.5-2,0.8-3l-1-1.9l1.2,1c1.9-8.7,2.3-19.7-4.3-28.4
	c-7.4-9.7-21.7-14.5-42.7-14.4c-22.4,0.2-38.1,6-45.2,16.7c-5.4,8.1-5.7,18.5-0.9,30.1c2.3,5.6,4.3,10.1,6.4,14l0.3,0.7l-0.6,0.5
	c-3,2.6-5.7,5.6-8,8.8l-0.6,0.8l-10.8-9.2l4.8-8.2l-7.2,5.9l-20.7-19.4l-7,8.1l22.8,18l-0.4,0.7c-9.7,18.1-19,39.2-15,59.2l11.7-4.9
	c-2.5-19.2-3.6-36.4,6-52.3L-359.6,236.8z M-352.5,230l8,6.8c2.1-2.8,4.5-5.4,7.1-7.7c-1.9-3.8-3.9-8.1-6.1-13.5
	c-0.1-0.2-0.2-0.4-0.2-0.6L-352.5,230z M-253.4,229.9c1.7,1.6,3.3,3.3,4.8,5.1l8.8-7.3l-7.7-13.8c-0.1,0.4-0.2,0.7-0.3,1.1
	C-249.4,220.5-251.3,225.5-253.4,229.9z M-312.6,214.5c-1.7,0-3.1-0.6-3.8-2.6l0-0.1c-2.3-8.3-2.3-13.2-0.2-16.4
	c3-4.4,10.1-5,20.9-6c10.9,0.4,17.3,1.4,20,5.5c2.3,3.4,2,8.5-1.1,17.6l-0.1,0.3c-1.9,2.5-4.5,1.7-7.8,0.8c-2.8-0.8-6.6-2-11.7-1.8
	c-4.5,0.1-8.1,1.1-11,1.8C-309.4,214.1-311.1,214.5-312.6,214.5z M-314.6,211.3c0.7,1.7,2,1.6,6.7,0.4c3-0.8,6.8-1.8,11.5-1.9
	c5.4-0.2,9.4,1,12.3,1.9c3.4,1,4.6,1.3,5.6,0.1c2.8-8.3,3.2-13,1.3-15.7c-2.3-3.4-8.5-4.3-18.4-4.7c-10.1,0.9-16.8,1.5-19.3,5.1
	C-316.8,199.2-316.7,203.6-314.6,211.3z"/>
<path class="st2" d="M-317.3,215c-11.7-21.6,0.7-28.1,22.1-27.5c22.4-0.7,30.7,9.4,20.4,28.5c-2.5,3.6-11.1-1.7-21.4-1.4
	C-306.4,214.8-315.5,219.5-317.3,215z M-295.5,170.5c48,0.3,47.3,30.9,43.2,45.3c-4,14.4-3.3,9.9-5.5,14.4
	c8,10.8,15.7,15.6,16.7,39.6c1,24-20.7,55.4-54.7,54.7c-33.9-0.7-56.5-31-54.7-54.7c1.8-23.7,10.3-29.5,18.2-40.1
	c-2.1-4.2-0.9,0.7-6.5-13.5C-344.4,202-343.6,170.2-295.5,170.5z"/>
<path class="st1" d="M-294.7,325.1c-0.4,0-0.7,0-1.1,0c-15.8-0.3-30.4-7-41.2-18.9c-9.7-10.7-14.9-24.3-14-36.3
	c1.5-19.7,7.7-27.2,14.1-35.2c1.3-1.6,2.6-3.2,3.9-5c-0.5-1-0.8-1.4-1.1-1.7c-0.7-0.9-1.5-1.8-5.3-11.5c-3.1-7.8-4.2-20.6,2.8-30.8
	c7.1-10.4,20.7-15.7,40.4-15.7c0.2,0,0.4,0,0.6,0c19.1,0.1,32.4,5,39.6,14.5c8.6,11.4,5.8,25.8,4.2,31.6c-2.9,10.3-3.4,11-4.2,12.3
	c-0.3,0.4-0.6,0.9-1.1,2c1.3,1.7,2.6,3.3,3.8,4.8c6.4,7.9,12,14.7,12.8,34.8c0.6,13.2-5.7,28.2-16.3,39
	C-267,319.3-280.5,325.1-294.7,325.1z M-296.1,171c-19.3,0-32.5,5.1-39.5,15.2c-6.7,9.8-5.7,22.2-2.7,29.7
	c3.8,9.6,4.5,10.4,5.1,11.2c0.3,0.4,0.7,0.9,1.4,2.3l0.1,0.3l-0.2,0.3c-1.4,1.9-2.8,3.6-4.2,5.3c-6.4,7.8-12.4,15.2-13.9,34.6
	c-0.9,11.7,4.2,25,13.7,35.5c10.6,11.7,24.9,18.3,40.4,18.6c14.3,0.3,27.8-5.4,38.1-15.9c10.4-10.6,16.5-25.3,16-38.2
	c-0.8-19.7-6.3-26.4-12.6-34.1c-1.3-1.6-2.7-3.3-4-5.1l-0.2-0.3l0.1-0.3c0.6-1.3,1-1.9,1.4-2.4c0.8-1.1,1.2-1.8,4.1-11.9
	c1.5-5.5,4.3-19.6-4-30.6c-7-9.2-20-14-38.7-14.1C-295.7,171-295.9,171-296.1,171z M-277.9,217.7c-1.7,0-3.8-0.5-6.2-1
	c-3.4-0.8-7.7-1.8-12.1-1.6c-3.8,0.1-7.4,0.8-10.5,1.4c-5.5,1.1-9.8,1.9-11.1-1.3c-4.8-8.9-5.8-15.9-2.9-20.6
	c3.4-5.5,11.9-8.1,25.5-7.7c11.9-0.4,20,2.4,23.4,7.9c3.2,5.2,2.3,12.4-2.6,21.4C-275.1,217.3-276.3,217.7-277.9,217.7z M-295.4,214
	c4.3,0,8.3,0.9,11.6,1.7c4.1,0.9,7.4,1.7,8.5,0c4.6-8.5,5.5-15.5,2.6-20.2c-3.2-5.2-11-7.8-22.5-7.4c-13.2-0.4-21.5,2.1-24.6,7.2
	c-2.7,4.4-1.7,11,3,19.6l0,0.1c0.9,2.3,4.1,1.8,9.8,0.7c3.2-0.6,6.9-1.4,10.7-1.5C-295.9,214-295.6,214-295.4,214z"/>
<path class="st3" d="M-295.5,221.3c27.3,0,49.4,22.1,49.4,49.4c0,27.3-22.1,49.4-49.4,49.4c-27.3,0-49.4-22.1-49.4-49.4
	C-344.9,243.5-322.8,221.3-295.5,221.3"/>
<path class="st0" d="M-337.2,260.5c36.9,7.9,73.6,15,86.4,11.5c-0.9,7-4.3,13.1-7.8,18.1c-13.1-19.8-38.2-12.5-66,4.4
	c-4.3-3.6-7.4-7.9-8.7-13c6-3,13.1-5.5,21.2-7.5c-9.1-0.4-17.2-0.3-24.2,0.2C-337.6,269.9-337.9,265.4-337.2,260.5"/>
<path class="st2" d="M-337.3,260.5c29.5,5.5,59.3,10.4,84.7,11.3C-271.4,277.5-303.5,268.8-337.3,260.5z"/>
<path class="st1" d="M-267.1,274.2c-17.1,0-39.4-5.5-62.8-11.3c-2.5-0.6-5-1.2-7.6-1.9l0.2-1.1c27,5,58.2,10.3,84.6,11.3l3.3,0.1
	l-3.1,1C-256.7,273.6-261.6,274.2-267.1,274.2z M-320,264.2c25,6.1,48,11,63.5,8C-276.5,271.1-298.9,267.9-320,264.2z"/>
<path class="st2" d="M-305.6,290.9c16.8-10.1,29.4-14.1,38.1-2.1C-280,281.4-286.6,284.8-305.6,290.9z"/>
<path class="st1" d="M-309.9,292.9l4.1-2.5c16.8-10.1,29.9-14.3,38.8-1.9l1.5,2.1l-2.3-1.3c-11.1-6.6-17.4-4.5-32.4,0.4
	c-1.6,0.5-3.4,1.1-5.2,1.7L-309.9,292.9z M-281,281.9c-5.6,0-12.2,2.6-19.8,6.9c0.1,0,0.2-0.1,0.3-0.1c13.8-4.6,20.7-6.8,30.8-1.7
	C-273,283.5-276.7,281.9-281,281.9z"/>
<path class="st0" d="M-283.2,253.8c-8.8,11.5-42.1,6.1-35.5-20.2L-283.2,253.8z"/>
<path class="st0" d="M-271.8,254.4c4.4,9.3,14.3,3.8,15.4-8.7C-261.6,247.7-267.6,250.8-271.8,254.4"/>
<path class="st2" d="M-321.1,232.4c17,9.6,35.5,20.3,44.2,26.1c6.7-5.9,14.4-10.2,20.5-12.9c-6,1.2-12.5,3.4-18.5,6.6
	c-0.6-11-3.9-19.2-8.3-25.1c3,7.4,5.7,16.7,4.8,25.4C-282.3,249.1-307.5,237.5-321.1,232.4z"/>
<path class="st1" d="M-276.9,259.2l-0.4-0.2c-10-6.7-31.9-19.2-44.1-26.1l-6.2-3.5l6.6,2.5c12.8,4.8,36.1,15.5,41.9,19.5
	c0.5-6.9-1.1-14.8-4.8-24.1l-1.5-3.8l2.5,3.3c4.9,6.5,7.7,14.8,8.4,24.5c5.6-2.8,11.9-5,17.9-6.2l4.8-1l-4.5,2
	c-4.4,2-12.9,6.2-20.3,12.8L-276.9,259.2z M-313.8,235.8c12.2,6.9,28.5,16.4,36.9,22c5.4-4.7,11.2-8.2,15.7-10.5
	c-4.6,1.3-9.2,3.1-13.4,5.3l-0.8,0.4l0-0.9c-0.4-7.9-2.3-14.9-5.6-20.7c2.7,8,3.7,14.9,3.1,21l-0.1,1.1l-0.8-0.7
	C-282,250.1-300.1,241.5-313.8,235.8z"/>
<path class="st2" d="M-289,250c-10.3,7.5-19.7,0.1-26-11.5l9.7,5.1l-5.7-5.6L-289,250z"/>
<path class="st2" d="M-269.2,252.2c4.2,5.3,6.8,0,11.1-4.8l-3,1.8l0.6-2.1L-269.2,252.2z"/>
<path class="st1" d="M-265.9,254.9C-265.9,254.9-265.9,254.9-265.9,254.9c-1.3,0-2.5-0.8-3.8-2.4l-0.4-0.5l10.4-6.1l-0.6,2.1l5-3
	l-2.5,2.7c-0.7,0.8-1.4,1.7-2.1,2.5C-261.9,252.7-263.7,254.9-265.9,254.9z M-268.4,252.3c0.9,1,1.7,1.5,2.5,1.5
	c1.6,0.1,3.3-2,5.2-4.3l-1.3,0.8l0.6-2.1L-268.4,252.3z"/>
<path class="st4" d="M-337,244c-11.4,46.5,26.1,93.4,82.8,54.2C-291.2,350.5-372.3,300.8-337,244"/>
<path class="st0" d="M-278.5,216.7c12,4.6,21.4-1.6,29-11.1l-0.3-6.3c-8.5,10.5-22,18.4-26,12.3L-278.5,216.7z"/>
<path class="st0" d="M-314.5,216.4c-19.1-2.1-23.8-18.9-26.3-31.6c1.2-0.6,4.8-4.3,4.1-3.2c-2.8,4.5,12.2,33.7,20.3,29.6
	L-314.5,216.4z"/>
<path class="st5" d="M-368.3,289.4l-6.8,2.6c-4.4-21.2,8.7-56.6,25-70C-365.4,243.3-373.9,257.3-368.3,289.4 M-213.4,291.2l-7.2-2.3
	c3.8-19.4,2.6-38.3-20.1-67.5C-222.3,242.7-211,261.6-213.4,291.2z"/>
<polygon class="st2" points="-378.4,211.5 -347,240.1 -348.3,241.9 -382,215.8 "/>
<path class="st1" d="M-348.2,242.7l-34.6-26.8l4.3-5.2l32.3,29.4L-348.2,242.7z M-381.2,215.7l32.8,25.4l0.7-0.9l-30.7-27.9
	L-381.2,215.7z"/>
<polygon class="st2" points="-214,209.2 -246.2,238.4 -244.8,240.2 -210.4,213.6 "/>
<path class="st1" d="M-244.9,241l-2-2.7l33-29.9l4.3,5.2L-244.9,241z M-245.4,238.5l0.7,1l33.5-26l-2.9-3.4L-245.4,238.5z"/>
<path class="st6" d="M-218.4,326.6l-15.4-8.4l-3.3,5.8l-7.7-4.2l11.5-20.3l7.7,4.2l-3.3,5.8l15.4,8.4L-218.4,326.6z M-232.1,343.2
	l-19-18l7.1-7.2l19,18L-232.1,343.2z M-254.2,359.4l-14-21.9l18.4-11.2l4.5,7l-9.8,6l1.6,2.5l9.8-6l3.9,6.1l-9.8,6l4,6.3
	L-254.2,359.4z M-282.2,367.7l-1.6-6.4c1.7-0.2,3.3-0.3,4.8-0.6c1.5-0.2,2.8-0.5,3.9-0.8c1.2-0.3,2.1-0.6,2.5-1
	c0.4-0.3,0.5-0.8,0.4-1.4c-0.3-1-1.5-1.3-3.8-0.8c-1,0.2-1.7,0.4-2.3,0.5c-1.5,0.3-2.6,0.4-3.4,0.3c-0.8-0.1-1.5-0.3-2.1-0.7
	c-0.8-0.5-1.4-1.2-2-2.1c-0.6-0.9-1-2.1-1.4-3.5c-0.8-3.1-0.5-5.6,0.8-7.3c1.3-1.7,3.9-3.1,7.9-4.1c1.3-0.3,2.8-0.6,4.5-0.9
	c1.7-0.3,3.7-0.5,6.1-0.8l1.9,7.6c-1.6,0.2-2.9,0.3-4,0.5c-1.1,0.2-2.2,0.4-3,0.6c-2,0.5-3.3,0.9-3.8,1.3c-0.5,0.4-0.7,0.9-0.5,1.6
	c0.1,0.5,0.4,0.8,0.9,1c0.5,0.1,1.2,0.1,2.2-0.2l1.4-0.3c3.2-0.8,5.6-0.8,7.1-0.1c1.5,0.8,2.6,2.5,3.3,5.2c0.7,2.9,0.5,5.2-0.8,6.9
	c-1.3,1.7-3.8,3-7.5,3.9c-1.4,0.3-3,0.6-4.9,0.9C-277.8,367.3-279.9,367.5-282.2,367.7z M-308.8,368l0.2-6.6
	c1.7,0.3,3.3,0.6,4.7,0.7c1.5,0.2,2.8,0.3,4,0.3c1.3,0,2.2,0,2.6-0.3c0.5-0.2,0.7-0.6,0.8-1.2c0-1.1-1.1-1.7-3.4-1.8
	c-1,0-1.8-0.1-2.4-0.1c-1.5-0.1-2.6-0.4-3.4-0.6c-0.7-0.3-1.4-0.7-1.9-1.3c-0.6-0.7-1-1.5-1.3-2.6c-0.3-1.1-0.4-2.3-0.4-3.7
	c0.1-3.2,1.1-5.5,2.8-6.8c1.8-1.3,4.7-1.9,8.7-1.8c1.4,0,2.9,0.2,4.6,0.4c1.7,0.2,3.7,0.5,6.1,0.9l-0.3,7.8c-1.5-0.3-2.9-0.5-4-0.6
	c-1.1-0.1-2.2-0.2-3.1-0.3c-2.1-0.1-3.4,0-4,0.2c-0.6,0.2-0.9,0.7-0.9,1.4c0,0.5,0.2,0.9,0.6,1.2c0.4,0.2,1.1,0.4,2.2,0.4l1.4,0
	c3.3,0.1,5.6,0.7,6.8,1.9c1.2,1.1,1.8,3.1,1.7,5.8c-0.1,3-1,5.1-2.8,6.4c-1.7,1.3-4.5,1.8-8.3,1.7c-1.4,0-3.1-0.2-5-0.4
	C-304.5,368.7-306.5,368.4-308.8,368z M-327.1,364.2c-4.4-1.6-7.3-3.8-8.5-6.7c-1.2-2.9-0.9-6.8,0.9-11.6c1.5-4.2,3.7-6.8,6.4-8
	c2.8-1.2,6.3-1,10.7,0.6c4.4,1.6,7.3,3.7,8.6,6.3c1.3,2.6,1.2,6-0.3,10.2c-1.8,4.8-4.1,8-7,9.4C-319,365.9-322.7,365.8-327.1,364.2z
	 M-324.3,356.7c1.2,0.4,2.3,0.3,3.3-0.3c1-0.7,1.8-1.9,2.4-3.6c0.6-1.5,0.7-2.8,0.4-3.8c-0.3-1-1.1-1.7-2.4-2.2
	c-1.2-0.4-2.3-0.4-3.2,0.2c-0.9,0.5-1.6,1.6-2.2,3.1c-0.7,1.8-0.8,3.2-0.6,4.3C-326.3,355.5-325.6,356.3-324.3,356.7z M-364.9,338.2
	l18-18.9l12.9,11.8c2.2,2,3.4,3.9,3.7,5.7c0.2,1.8-0.6,3.6-2.3,5.4c-1.7,1.8-3.5,2.8-5.2,2.9c-1.8,0.1-3.6-0.5-5.4-2l-1.5,13.5
	l-8.5-7.8l1.3-7c0.1-0.7,0.3-1.4,0.5-2.1c0.2-0.7,0.4-1.3,0.7-2l-0.2-0.2c-0.4,0.5-0.8,1-1.2,1.5c-0.5,0.5-1.1,1.2-2,2.2l-3.4,3.6
	L-364.9,338.2z M-347.9,334.8l1.5,1.4c1.2,1.1,2.1,1.6,2.9,1.7c0.8,0.1,1.5-0.2,2.2-1c0.6-0.6,0.8-1.3,0.7-1.9
	c-0.2-0.6-0.8-1.5-2-2.5l-1.7-1.6L-347.9,334.8z M-369.3,330.4c-1.4-1.4-2.6-2.7-3.7-4.1c-1.1-1.4-2-2.7-2.7-4.1
	c-2-3.6-2.4-6.8-1.2-9.6c1.2-2.8,3.9-5.4,8.2-7.6c4.2-2.2,7.7-2.9,10.5-2.1c2.8,0.8,5.3,3.1,7.4,6.9c0.8,1.4,1.4,2.9,2,4.4
	c0.6,1.5,1,3.1,1.4,4.8l-8,4.1c-0.5-1.3-1-2.5-1.4-3.5c-0.4-1-0.9-1.9-1.2-2.6c-0.9-1.7-1.8-2.7-2.8-3.1c-1-0.4-2.1-0.2-3.5,0.5
	c-1.5,0.8-2.3,1.7-2.6,2.7c-0.3,1.1,0,2.4,0.9,4c0.5,0.8,1,1.7,1.7,2.6c0.7,0.9,1.5,1.8,2.3,2.8L-369.3,330.4z"/>
<path class="st7" d="M-250.6,376.4l1.1-0.5c0.9-0.4,1.5-0.3,1.8,0.4c0.2,0.4,0.2,0.8,0,1.2c-0.2,0.4-0.6,0.7-1.2,1l-1.9,0.9
	c-0.5,0.2-1,0.3-1.4,0.2c-0.4-0.1-0.7-0.4-0.9-0.8c-0.1-0.2-0.2-0.6-0.2-1.2l-0.4-12.6l0-0.3c0-0.9,0.3-1.6,1-1.9
	c0.3-0.1,0.6-0.1,0.9,0c0.3,0.1,0.5,0.3,0.6,0.6c0.1,0.2,0.1,0.5,0.2,0.8l0,0.3L-250.6,376.4z M-256.3,378.9l1.2-0.4
	c0.9-0.4,1.5-0.2,1.8,0.4c0.2,0.4,0.1,0.9-0.1,1.2c-0.2,0.4-0.6,0.7-1.2,0.9l-2,0.8c-0.5,0.2-1,0.2-1.4,0.1
	c-0.4-0.1-0.7-0.4-0.9-0.9c-0.1-0.2-0.1-0.6-0.1-1.3l0.2-12.6l0-0.3c0-0.9,0.4-1.6,1.1-1.9c0.3-0.1,0.6-0.1,0.9,0
	c0.3,0.1,0.5,0.3,0.6,0.6c0.1,0.2,0.1,0.5,0.1,0.8l0,0.3L-256.3,378.9z M-265.6,378.9l1.3-0.3c0.8-0.2,1.2-0.5,1-0.9
	c-0.1-0.4-0.4-0.5-0.9-0.4C-264.9,377.6-265.4,378.1-265.6,378.9z M-265.5,381.2c0.2,0.6,0.7,0.7,1.5,0.5l3.4-0.9
	c1-0.3,1.5,0,1.7,0.6c0.1,0.5,0.1,0.9-0.2,1.2c-0.3,0.4-0.7,0.6-1.3,0.8l-3.2,0.9c-1.2,0.3-2.2,0.3-3-0.2c-0.8-0.4-1.3-1.2-1.6-2.3
	c-0.4-1.5-0.2-2.9,0.5-4.2c0.7-1.3,1.7-2.2,3.1-2.5c1-0.3,1.9-0.2,2.6,0.1c0.7,0.4,1.2,1,1.5,1.8c0.3,1,0.1,1.9-0.6,2.6
	c-0.4,0.4-1,0.7-2,1L-265.5,381.2z M-274.9,378.5c0.7-0.6,1.4-0.9,1.9-1c0.7-0.1,1.4,0,1.9,0.3c0.5,0.3,0.9,0.8,1,1.5
	c0.1,0.4,0,0.8-0.1,1.3l-0.7,3.2l1.3-0.2c1-0.2,1.5,0.1,1.6,0.8c0.1,0.5,0,0.9-0.3,1.2c-0.3,0.3-0.8,0.5-1.4,0.6l-2.3,0.4
	c-0.5,0.1-0.9,0-1.3-0.2c-0.4-0.2-0.6-0.6-0.7-1c0-0.3,0-0.6,0.1-1.1l0.7-2.8c0.1-0.4,0.1-0.6,0.1-0.8c-0.1-0.4-0.4-0.6-1-0.5
	c-0.8,0.1-1.4,0.9-1.7,2.3l-0.8,3.4c-0.3,1.1-0.8,1.7-1.6,1.8c-0.3,0.1-0.6,0-0.9-0.2c-0.3-0.2-0.4-0.4-0.5-0.7c0-0.2,0-0.5,0.1-0.8
	l0.1-0.3l3.1-13.3c0.3-1.1,0.8-1.8,1.6-1.9c0.3-0.1,0.6,0,0.9,0.2c0.3,0.2,0.4,0.4,0.5,0.7c0,0.3,0,0.6-0.1,1.2L-274.9,378.5z
	 M-287.1,377.6l2.8-0.2c1.6-0.1,2.4-0.6,2.3-1.6c0-0.4-0.2-0.6-0.6-0.8c-0.3-0.2-0.8-0.3-1.3-0.2c-0.8,0.1-1.6,0.4-2.3,0.9
	C-286.8,376.3-287.1,376.9-287.1,377.6z M-285.5,380.3l1.2,1.3l0.7,0.7c1.3,1.4,2,2.9,2.1,4.6c0.1,1.6-0.3,3.1-1.3,4.4
	c-1.3,1.8-3.2,2.7-5.5,2.9c-1.8,0.1-3.4-0.3-4.6-1.4c-1.2-1-1.9-2.4-2.1-4.2c-0.1-2.1,0.6-4,2.4-5.6c0.9-0.8,1.8-1.3,2.6-1.3
	c0.4,0,0.8,0.1,1.1,0.3c0.3,0.2,0.4,0.5,0.5,0.9c0,0.5-0.2,1-0.8,1.4l-0.9,0.6c-0.5,0.4-0.9,0.9-1.2,1.5c-0.3,0.6-0.5,1.2-0.4,1.8
	c0.1,0.9,0.4,1.7,1.1,2.2c0.7,0.6,1.5,0.8,2.5,0.7c1.1-0.1,2-0.5,2.7-1.4c0.7-0.9,1.1-1.8,1-2.9c0-0.7-0.3-1.3-0.6-1.8
	c-0.4-0.5-1.1-1.4-2.3-2.5c-0.8-0.8-1.4-1.5-1.8-2l-3.2,0.2c-1.1,0.1-1.6-0.3-1.7-1c0-0.5,0.1-1,0.5-1.3c0.4-0.3,0.9-0.5,1.6-0.6
	l2-0.1c0-1.6,0.7-2.9,1.9-4c1.2-1.1,2.7-1.7,4.4-1.8c1.3-0.1,2.4,0.2,3.3,0.9c0.9,0.7,1.4,1.6,1.4,2.7c0.1,1.5-0.5,2.8-1.7,3.7
	c-0.7,0.5-1.9,0.8-3.5,1L-285.5,380.3z M-308.7,385.5l0.4,0c0.5,0.1,0.9-0.1,1.1-0.5l1.1-2.1c0.1-0.3,0.2-0.5,0.2-0.6
	c0-0.2-0.1-0.4-0.2-0.6c-0.2-0.2-0.4-0.3-0.7-0.3c-0.6-0.1-1.2,0.2-1.8,0.8c-0.6,0.6-0.9,1.3-1,2.1
	C-309.6,385-309.3,385.4-308.7,385.5z M-304.4,385.8l1.3,0.1c1,0.1,1.5,0.5,1.4,1.2c-0.1,0.5-0.3,0.8-0.6,1.1
	c-0.4,0.2-0.9,0.3-1.5,0.2l-1.6-0.2c-0.6-0.1-1-0.4-1.3-0.9c-0.6,0.4-1.1,0.6-1.7,0.6l-1.5-0.2c-0.9-0.1-1.5-0.5-2-1.1
	c-0.5-0.6-0.6-1.5-0.5-2.4c0.2-1.5,0.8-2.8,2-3.9c1.2-1.1,2.4-1.6,3.7-1.4c0.9,0.1,1.7,0.5,2.2,1.3l3.3-6.1c0.6-1,1.2-1.5,2-1.4
	c0.3,0,0.6,0.2,0.8,0.4c0.2,0.2,0.3,0.5,0.3,0.8c0,0.2-0.1,0.5-0.3,0.8l-0.2,0.3L-304.4,385.8z M-317.6,381l1.3,0.3
	c0.8,0.2,1.3,0.1,1.3-0.3c0.1-0.4-0.2-0.7-0.7-0.8C-316.4,380-317,380.3-317.6,381z M-318.6,383c-0.1,0.6,0.2,1,1.1,1.1l3.4,0.7
	c1,0.2,1.4,0.7,1.2,1.3c-0.1,0.5-0.3,0.8-0.7,1c-0.4,0.2-0.9,0.2-1.5,0.1l-3.3-0.7c-1.2-0.3-2.1-0.8-2.6-1.5
	c-0.5-0.7-0.6-1.7-0.4-2.8c0.3-1.5,1.1-2.7,2.3-3.5c1.2-0.9,2.5-1.1,3.9-0.9c1,0.2,1.8,0.6,2.3,1.3c0.5,0.7,0.7,1.4,0.5,2.3
	c-0.2,1-0.8,1.7-1.8,2c-0.5,0.2-1.3,0.2-2.2,0L-318.6,383z M-326,375.7l0.3,0.1c0.9,0.3,1.5,0.3,2.1,0.2c1-0.2,1.6-0.8,2-1.7
	c0.4-1,0.1-1.7-0.9-2.1l-0.2-0.1L-326,375.7z M-324.3,378.7l0.3,6.4c0,0.8,0.3,1.3,0.8,1.5l0.4,0.1l4.6,1.7c1,0.4,1.4,0.9,1.1,1.6
	c-0.2,0.5-0.5,0.8-1,1c-0.5,0.2-1,0.1-1.7-0.1l-5.1-1.9c-1.4-0.5-2.1-1.5-2.2-3.1l-0.4-8.9l-2.8,3.1c-1.3,1.5-2.3,2.5-2.8,3
	c-0.5,0.5-1.1,1-1.7,1.3c-2.1,1.4-4.2,1.7-6.4,0.9c-1.6-0.6-2.6-1.5-3.3-2.8c-0.6-1.3-0.6-2.8-0.1-4.4c0.7-2.1,2.2-3.6,4.3-4.6
	c1.1-0.5,2.4-0.8,3.8-0.9c1.4-0.1,2.7,0.1,3.9,0.6c0.6,0.2,1,0.5,1.3,0.9c0.3,0.4,0.3,0.8,0.2,1.2c-0.2,0.5-0.5,0.8-1,0.9
	c-0.3,0.1-0.7,0-1.4-0.1c-1.5-0.4-2.8-0.5-3.9-0.3c-0.9,0.2-1.7,0.6-2.4,1.1c-0.7,0.6-1.2,1.2-1.5,2c-0.3,0.8-0.3,1.6-0.1,2.2
	c0.3,0.6,0.7,1.1,1.5,1.4c0.9,0.3,1.8,0.2,2.8-0.3c0.9-0.5,2.2-1.6,3.6-3.3l7.3-8l-1.1-0.4c-1-0.4-1.4-0.9-1.1-1.6
	c0.2-0.5,0.5-0.8,1-1c0.5-0.1,1-0.1,1.7,0.1l3.7,1.3c1,0.3,1.6,0.7,2,0.9c0.4,0.3,0.8,0.7,1,1.2c0.6,1,0.7,2.2,0.2,3.5
	c-0.4,1.2-1.2,2.1-2.2,2.8C-321.9,378.5-323,378.8-324.3,378.7z"/>
<path class="st8" d="M-289,394.4c-1.6,0-3-0.5-4.2-1.4c-1.3-1.1-2-2.5-2.1-4.3c-0.2-2.2,0.7-4.1,2.4-5.7c0.9-0.9,1.9-1.3,2.7-1.4
	c0.5,0,0.9,0.1,1.2,0.3c0.3,0.3,0.5,0.6,0.5,1.1c0,0.6-0.3,1.1-0.9,1.6l-0.9,0.6c-0.5,0.4-0.9,0.8-1.2,1.4c-0.3,0.6-0.4,1.2-0.4,1.7
	c0.1,0.9,0.4,1.6,1,2.1c0.6,0.5,1.4,0.8,2.3,0.7c1-0.1,1.9-0.5,2.6-1.3c0.7-0.8,1-1.7,0.9-2.8c0-0.6-0.2-1.2-0.6-1.7
	c-0.4-0.5-1.1-1.3-2.2-2.4c-0.8-0.7-1.3-1.4-1.7-2l-3,0.2c-1.5,0.1-1.9-0.6-1.9-1.2c0-0.6,0.1-1.1,0.6-1.5c0.4-0.4,1-0.6,1.7-0.6
	l1.8-0.1c0.1-1.5,0.7-2.9,1.9-4c1.2-1.1,2.8-1.8,4.6-1.9c1.4-0.1,2.5,0.2,3.5,0.9c0.9,0.7,1.4,1.7,1.5,2.9c0.1,1.6-0.5,2.9-1.8,3.9
	c-0.7,0.5-2,0.9-3.6,1l-0.7,0.1l1.6,1.7c1.3,1.4,2.1,3,2.2,4.7c0.1,1.7-0.3,3.2-1.3,4.5c-1.4,1.8-3.3,2.8-5.7,3
	C-288.6,394.4-288.8,394.4-289,394.4z M-289.9,381.9c0,0-0.1,0-0.1,0c-0.8,0.1-1.6,0.5-2.5,1.3c-1.7,1.5-2.4,3.3-2.3,5.4
	c0.1,1.7,0.8,3,2,4.1c1.2,1,2.7,1.5,4.5,1.3c2.3-0.2,4.1-1.1,5.4-2.8c0.9-1.2,1.4-2.7,1.3-4.2c-0.1-1.6-0.8-3.1-2.1-4.5l-0.7-0.7
	l-1.5-1.6l1.6-0.1c1.6-0.1,2.7-0.4,3.4-0.9c1.2-0.9,1.8-2,1.6-3.5c-0.1-1.1-0.5-2-1.4-2.6c-0.8-0.6-1.9-0.9-3.2-0.8
	c-1.7,0.1-3.2,0.7-4.3,1.8c-1.1,1.1-1.7,2.4-1.8,3.9l0,0.2l-2.2,0.2c-0.6,0-1.1,0.2-1.4,0.5c-0.3,0.3-0.4,0.6-0.4,1.1
	c0,0.4,0.2,0.9,1.5,0.8l3.3-0.2l0.1,0.1c0.4,0.6,0.9,1.3,1.7,2c1.2,1.1,1.9,2,2.3,2.5c0.4,0.6,0.6,1.2,0.6,1.9
	c0.1,1.1-0.3,2.2-1,3.1c-0.8,0.9-1.7,1.4-2.9,1.5c-1,0.1-1.9-0.2-2.6-0.8c-0.7-0.6-1.1-1.4-1.2-2.4c0-0.6,0.1-1.3,0.4-1.9
	c0.3-0.6,0.8-1.2,1.3-1.6l0.9-0.6c0.5-0.4,0.8-0.8,0.7-1.2c0-0.3-0.1-0.6-0.4-0.8C-289.4,382-289.6,381.9-289.9,381.9z
	 M-318.5,391.3c-0.4,0-0.7-0.1-1.2-0.2l-5.1-1.9c-1.5-0.5-2.3-1.6-2.3-3.2l-0.4-8.4l-2.5,2.7c-1.4,1.5-2.3,2.5-2.8,3
	c-0.5,0.5-1.1,1-1.7,1.4c-2.1,1.4-4.4,1.7-6.6,0.9c-1.6-0.6-2.7-1.6-3.4-2.9c-0.6-1.4-0.7-2.9-0.1-4.5c0.8-2.1,2.2-3.7,4.4-4.7
	c1.2-0.5,2.5-0.9,3.9-0.9c1.4-0.1,2.8,0.1,4,0.6c0.6,0.2,1.1,0.6,1.4,1c0.3,0.4,0.4,0.9,0.2,1.4c-0.2,0.5-0.6,0.9-1.1,1
	c-0.3,0.1-0.8,0-1.5-0.1c-1.5-0.4-2.8-0.5-3.8-0.3c-0.9,0.2-1.7,0.5-2.3,1.1c-0.7,0.5-1.1,1.2-1.4,1.9c-0.3,0.8-0.3,1.5-0.1,2.1
	c0.2,0.6,0.7,1,1.3,1.2c0.8,0.3,1.7,0.2,2.6-0.3c0.9-0.5,2.1-1.6,3.6-3.2l7.1-7.8l-0.8-0.3c-1.4-0.5-1.5-1.3-1.3-1.9
	c0.2-0.6,0.6-0.9,1.1-1.1c0.5-0.2,1.1-0.1,1.8,0.1l3.7,1.3c1,0.4,1.7,0.7,2.1,1c0.4,0.3,0.8,0.7,1.1,1.2c0.6,1.1,0.7,2.3,0.2,3.7
	c-0.4,1.2-1.2,2.2-2.3,2.9c-1,0.6-2.1,0.9-3.3,0.9l0.3,6.2c0,0.7,0.3,1.2,0.7,1.3l0.4,0.1l4.6,1.7c1.4,0.5,1.5,1.3,1.3,1.9
	c-0.2,0.6-0.6,0.9-1.1,1.1C-318.1,391.3-318.3,391.3-318.5,391.3z M-327.1,376.6l0.4,9.4c0.1,1.4,0.7,2.4,2.1,2.9l5.1,1.9
	c0.6,0.2,1.1,0.3,1.5,0.1c0.4-0.1,0.7-0.4,0.8-0.9c0.1-0.4,0.2-0.9-1-1.3l-5.1-1.8c-0.6-0.2-0.9-0.8-0.9-1.7l-0.3-6.6l0.2,0
	c1.2,0.1,2.3-0.2,3.3-0.8c1-0.6,1.7-1.5,2.1-2.7c0.4-1.2,0.4-2.3-0.2-3.3c-0.3-0.5-0.6-0.8-1-1.1c-0.4-0.3-1.1-0.6-2-0.9l-3.7-1.3
	c-0.6-0.2-1.1-0.3-1.5-0.1c-0.4,0.1-0.7,0.4-0.8,0.9c-0.1,0.4-0.2,0.9,1,1.3l1.4,0.5l-7.5,8.3c-1.5,1.7-2.8,2.8-3.7,3.3
	c-1,0.5-2,0.7-2.9,0.3c-0.8-0.3-1.3-0.8-1.6-1.5c-0.3-0.7-0.2-1.5,0.1-2.4c0.3-0.8,0.8-1.5,1.5-2.1c0.7-0.6,1.6-1,2.5-1.2
	c1.1-0.2,2.5-0.1,4,0.3c0.8,0.2,1.1,0.2,1.3,0.1c0.4-0.1,0.7-0.4,0.8-0.8c0.1-0.4,0.1-0.7-0.1-1c-0.2-0.4-0.6-0.6-1.2-0.8
	c-1.2-0.4-2.5-0.6-3.9-0.5c-1.4,0.1-2.6,0.4-3.7,0.9c-2,1-3.4,2.5-4.1,4.5c-0.6,1.5-0.5,2.9,0,4.2c0.6,1.3,1.6,2.2,3.1,2.7
	c2.1,0.8,4.1,0.5,6.2-0.9c0.6-0.4,1.1-0.8,1.6-1.3c0.5-0.5,1.4-1.5,2.8-3L-327.1,376.6z M-303.4,388.7c-0.1,0-0.3,0-0.4,0l-1.6-0.2
	c-0.6-0.1-1-0.3-1.3-0.8c-0.5,0.4-1.1,0.5-1.6,0.5l-1.5-0.2c-0.9-0.1-1.6-0.5-2.1-1.2c-0.5-0.7-0.7-1.6-0.6-2.6c0.2-1.6,0.8-2.9,2-4
	c1.2-1.1,2.5-1.6,3.8-1.5c0.9,0.1,1.6,0.5,2.1,1.1l3.1-5.8c0.6-1.1,1.4-1.6,2.2-1.6c0.4,0,0.7,0.2,1,0.5c0.3,0.3,0.4,0.6,0.3,1
	c0,0.3-0.1,0.6-0.3,0.9l-0.2,0.3l-5.6,10.6l1,0.1c1.4,0.1,1.6,0.9,1.6,1.4c-0.1,0.5-0.3,1-0.7,1.2
	C-302.5,388.6-302.9,388.7-303.4,388.7z M-306.6,387.1l0.1,0.3c0.2,0.5,0.6,0.7,1.1,0.8l1.6,0.2c0.6,0.1,1,0,1.4-0.2
	c0.3-0.2,0.5-0.5,0.5-0.9c0-0.4,0-0.8-1.2-1l-1.6-0.2l6.1-11.4c0.1-0.3,0.2-0.5,0.2-0.7c0-0.3,0-0.5-0.2-0.7
	c-0.2-0.2-0.4-0.3-0.7-0.3c-0.7-0.1-1.3,0.4-1.8,1.3l-3.4,6.4l-0.2-0.3c-0.5-0.7-1.1-1.1-2-1.2c-1.2-0.1-2.4,0.3-3.5,1.4
	c-1.1,1.1-1.7,2.3-1.9,3.8c-0.1,0.9,0.1,1.7,0.5,2.3c0.4,0.6,1,0.9,1.8,1l1.5,0.2c0.5,0.1,1-0.1,1.5-0.5L-306.6,387.1z M-278.4,388
	c-0.3,0-0.5-0.1-0.8-0.2c-0.3-0.2-0.5-0.5-0.5-0.8c0-0.2,0-0.5,0.1-0.9l3.2-13.6c0.3-1.2,0.9-1.9,1.7-2.1c0.4-0.1,0.7,0,1,0.2
	c0.3,0.2,0.5,0.5,0.6,0.9c0,0.3,0,0.7-0.1,1.2l-1.2,5.2c0.6-0.4,1.1-0.6,1.5-0.7c0.8-0.1,1.5,0,2.1,0.4c0.6,0.4,1,0.9,1.1,1.6
	c0.1,0.4,0,0.9-0.1,1.4l-0.7,2.9l1-0.2c0.5-0.1,1-0.1,1.3,0.1c0.3,0.2,0.5,0.5,0.6,0.9c0.1,0.5,0,1-0.4,1.4
	c-0.3,0.4-0.8,0.6-1.5,0.7l-2.3,0.4c-0.5,0.1-1,0-1.5-0.3c-0.4-0.3-0.7-0.6-0.8-1.1c-0.1-0.3,0-0.7,0.1-1.2l0.7-2.8
	c0.1-0.3,0.1-0.6,0.1-0.7c0-0.1-0.1-0.2-0.1-0.3c-0.1-0.1-0.3-0.1-0.6-0.1c-0.7,0.1-1.2,0.8-1.5,2.2l-0.8,3.4
	c-0.3,1.2-0.9,1.8-1.8,2C-278.3,388-278.4,388-278.4,388z M-274.6,370.8c-0.1,0-0.1,0-0.2,0c-0.7,0.1-1.1,0.7-1.4,1.7l-3.2,13.6
	c-0.1,0.3-0.1,0.5,0,0.7c0,0.2,0.2,0.4,0.4,0.5c0.2,0.1,0.4,0.2,0.7,0.1c0.7-0.1,1.2-0.7,1.4-1.7l0.8-3.4c0.3-1.5,1-2.4,1.8-2.5
	c0.4-0.1,0.7,0,0.9,0.1c0.2,0.1,0.3,0.3,0.3,0.6c0,0.2,0,0.5-0.1,0.9l-0.7,2.8c-0.1,0.4-0.1,0.8-0.1,1c0.1,0.4,0.2,0.6,0.6,0.8
	c0.3,0.2,0.7,0.3,1.2,0.2l2.3-0.4c0.6-0.1,1-0.3,1.3-0.6c0.3-0.3,0.4-0.6,0.3-1c0-0.3-0.2-0.5-0.4-0.6c-0.2-0.1-0.6-0.1-1-0.1
	l-1.6,0.3l0.8-3.5c0.1-0.5,0.1-0.9,0.1-1.2c-0.1-0.6-0.4-1-0.9-1.3c-0.5-0.3-1.1-0.4-1.8-0.3c-0.5,0.1-1.1,0.4-1.8,0.9l-0.5,0.4
	l1.5-6.4c0.1-0.6,0.1-0.9,0.1-1.1c0-0.2-0.2-0.4-0.4-0.6C-274.2,370.9-274.4,370.8-274.6,370.8z M-314.4,387.5c-0.2,0-0.5,0-0.7-0.1
	l-3.3-0.7c-1.3-0.3-2.2-0.8-2.7-1.6c-0.5-0.8-0.7-1.8-0.4-3c0.3-1.5,1.1-2.8,2.4-3.6c1.3-0.9,2.6-1.2,4.1-0.9
	c1.1,0.2,1.9,0.7,2.4,1.4c0.5,0.7,0.7,1.5,0.5,2.4c-0.2,1.1-0.9,1.8-1.9,2.2c-0.6,0.2-1.3,0.2-2.3,0l-2.1-0.4c0,0.1,0,0.2,0.1,0.2
	c0.1,0.2,0.4,0.4,0.9,0.5l3.4,0.7c0.6,0.1,1,0.4,1.3,0.7c0.2,0.2,0.2,0.5,0.1,0.9c-0.1,0.5-0.4,0.9-0.9,1.1
	C-313.7,387.5-314,387.5-314.4,387.5z M-316.1,377.9c-1,0-1.9,0.3-2.8,0.9c-1.2,0.8-1.9,2-2.2,3.4c-0.2,1.1-0.1,2,0.4,2.7
	c0.5,0.7,1.3,1.2,2.5,1.4l3.3,0.7c0.6,0.1,1,0.1,1.4-0.1c0.3-0.2,0.5-0.4,0.6-0.8c0-0.2,0-0.4-0.1-0.6c-0.2-0.2-0.5-0.4-1-0.5
	l-3.4-0.7c-0.6-0.1-1-0.3-1.2-0.6c-0.1-0.2-0.2-0.5-0.1-0.8l0-0.2l2.5,0.5c0.9,0.2,1.6,0.2,2.1,0c0.9-0.3,1.4-0.9,1.6-1.9
	c0.2-0.8,0-1.5-0.4-2.1s-1.2-1-2.1-1.2C-315.4,378-315.8,377.9-316.1,377.9z M-308,385.7c-0.1,0-0.1,0-0.2,0l-0.4,0
	c-0.8-0.1-1.1-0.6-1.1-1.4c0.1-0.8,0.4-1.6,1.1-2.2c0.6-0.7,1.3-1,2-0.9c0.3,0,0.6,0.2,0.8,0.4c0.2,0.2,0.3,0.5,0.3,0.8
	c0,0.2-0.1,0.4-0.3,0.7l-1.1,2.1C-307.1,385.4-307.4,385.7-308,385.7z M-308.7,385.2l0.4,0c0.5,0.1,0.8-0.1,0.9-0.4l1.1-2.1
	c0.2-0.3,0.2-0.4,0.2-0.5c0-0.2,0-0.3-0.2-0.5c-0.1-0.1-0.3-0.2-0.6-0.3c-0.5-0.1-1.1,0.2-1.6,0.8c-0.6,0.6-0.9,1.2-1,2
	C-309.4,384.9-309.2,385.2-308.7,385.2L-308.7,385.2z M-265.1,384.7c-0.6,0-1.2-0.1-1.6-0.4c-0.8-0.5-1.4-1.3-1.7-2.5
	c-0.4-1.5-0.2-3,0.5-4.3c0.7-1.4,1.8-2.3,3.2-2.6c1-0.3,2-0.2,2.8,0.2c0.8,0.4,1.3,1,1.6,1.9c0.3,1.1,0.1,2-0.7,2.8
	c-0.4,0.4-1.1,0.8-2.1,1l-2,0.5c0.1,0.1,0.2,0.2,0.3,0.2c0.2,0.1,0.5,0.1,0.9-0.1l3.4-0.9c0.7-0.2,1.1-0.1,1.4,0.1
	c0-0.2,0-0.5,0-0.8l0.3-13c0-1,0.4-1.7,1.3-2c0.4-0.1,0.7-0.1,1.1,0c0.4,0.1,0.6,0.4,0.7,0.7c0.1,0.2,0.1,0.5,0.1,0.9l0,0.3
	l-0.2,11.9l0.9-0.3c0.5-0.2,0.9-0.3,1.3-0.2c0.2,0.1,0.4,0.2,0.5,0.3c-0.1-0.3-0.1-0.6-0.1-1l-0.4-13c0-1,0.4-1.7,1.2-2.1
	c0.4-0.2,0.7-0.2,1.1,0c0.4,0.1,0.6,0.4,0.8,0.7c0.1,0.2,0.2,0.5,0.2,0.9l0,0.3l0.4,11.8l0.8-0.4c1.3-0.6,1.8-0.1,2.1,0.5
	c0.2,0.5,0.2,1,0,1.4c-0.2,0.4-0.7,0.8-1.3,1.1l-1.9,0.9c-0.6,0.3-1.1,0.3-1.6,0.2c-0.3-0.1-0.6-0.3-0.8-0.5c0.1,0.4,0,0.8-0.2,1.1
	c-0.2,0.4-0.7,0.7-1.3,1l-2,0.8c-0.6,0.2-1.1,0.3-1.6,0.1c-0.2-0.1-0.4-0.2-0.5-0.3c0,0.3-0.1,0.6-0.3,0.9c-0.3,0.4-0.8,0.7-1.4,0.8
	l-3.2,0.9C-264.2,384.6-264.7,384.7-265.1,384.7z M-263.5,375.1c-0.4,0-0.7,0.1-1.1,0.2c-1.3,0.3-2.3,1.2-3,2.4
	c-0.7,1.3-0.8,2.6-0.4,4c0.3,1.1,0.8,1.8,1.5,2.2c0.7,0.4,1.7,0.4,2.8,0.1l3.2-0.9c0.6-0.1,1-0.4,1.2-0.7c0.2-0.3,0.3-0.6,0.2-1
	c-0.1-0.3-0.3-0.8-1.4-0.5l-3.4,0.9c-0.5,0.1-0.8,0.1-1.1,0c-0.3-0.1-0.5-0.3-0.6-0.7l-0.1-0.2l2.5-0.7c0.9-0.2,1.5-0.5,1.9-0.9
	c0.7-0.7,0.8-1.5,0.6-2.4c-0.2-0.8-0.7-1.3-1.3-1.7C-262.6,375.2-263.1,375.1-263.5,375.1z M-257.2,365.1c-0.1,0-0.2,0-0.4,0.1
	c-0.7,0.3-1,0.8-1,1.7l0,0.3l-0.2,12.6c0,0.7,0,1,0.1,1.2c0.1,0.4,0.4,0.6,0.7,0.7c0.4,0.1,0.8,0.1,1.3-0.1l2-0.8
	c0.5-0.2,0.9-0.5,1.1-0.8c0.2-0.3,0.2-0.7,0.1-1c-0.1-0.3-0.3-0.4-0.5-0.5c-0.3-0.1-0.6,0-1,0.1l-1.4,0.6l0.2-12.8
	c0-0.3,0-0.5-0.1-0.7c-0.1-0.2-0.2-0.4-0.5-0.5C-257,365.1-257.1,365.1-257.2,365.1z M-252.2,362.6c-0.1,0-0.3,0-0.4,0.1
	c-0.6,0.3-0.9,0.8-0.9,1.7l0,0.3l0.4,12.6c0,0.7,0.1,1,0.2,1.2c0.2,0.4,0.4,0.6,0.8,0.7c0.4,0.1,0.8,0,1.3-0.2l1.9-0.9
	c0.5-0.2,0.9-0.5,1.1-0.9c0.2-0.3,0.2-0.7,0-1c-0.1-0.3-0.5-0.7-1.5-0.2l-1.4,0.6l-0.4-12.8c0-0.3-0.1-0.5-0.1-0.7
	c-0.1-0.2-0.3-0.4-0.5-0.5C-252,362.6-252.1,362.6-252.2,362.6z M-315.6,381.5c-0.2,0-0.4,0-0.7-0.1l-1.6-0.3l0.2-0.3
	c0.6-0.7,1.3-1,2.1-0.9c0.8,0.2,0.9,0.7,0.8,1c0,0.2-0.1,0.3-0.2,0.4C-315.2,381.5-315.4,381.5-315.6,381.5z M-317.2,380.8l0.9,0.2
	c0.7,0.1,0.9,0.1,1,0c0,0,0.1-0.1,0.1-0.1c0-0.2,0-0.4-0.5-0.5C-316.2,380.3-316.7,380.4-317.2,380.8z M-265.8,379.2l0.1-0.3
	c0.2-0.9,0.7-1.5,1.5-1.7c0.8-0.2,1.1,0.2,1.2,0.5c0.1,0.2,0,0.3,0,0.5c-0.1,0.3-0.5,0.5-1.2,0.7L-265.8,379.2z M-263.9,377.5
	c-0.1,0-0.2,0-0.3,0c-0.5,0.1-0.9,0.5-1.1,1.1l0.9-0.2c0.7-0.2,0.8-0.4,0.9-0.4c0,0,0-0.1,0-0.1
	C-263.5,377.7-263.6,377.5-263.9,377.5z M-287.3,377.8v-0.2c0-0.7,0.4-1.4,1.1-2c0.7-0.6,1.5-0.9,2.4-1c0.6,0,1.1,0,1.4,0.3
	c0.4,0.2,0.6,0.6,0.7,1c0.1,1.1-0.8,1.7-2.5,1.8L-287.3,377.8z M-283.6,375c-0.1,0-0.2,0-0.2,0c-0.8,0.1-1.5,0.3-2.1,0.9
	c-0.5,0.5-0.8,1-0.9,1.5l2.6-0.2c2.2-0.2,2.1-1,2.1-1.3c0-0.3-0.2-0.5-0.4-0.7C-282.9,375-283.2,375-283.6,375z M-324.2,376.3
	c-0.4,0-1-0.1-1.6-0.3l-0.7-0.2l3.5-3.9l0.4,0.1c1.1,0.4,1.4,1.2,1,2.3c-0.3,1-1.1,1.6-2.1,1.8C-323.8,376.2-324,376.3-324.2,376.3z
	 M-325.6,375.6L-325.6,375.6c0.8,0.2,1.5,0.3,2,0.2c0.9-0.2,1.5-0.7,1.8-1.5c0.3-0.9,0.1-1.5-0.8-1.8l-0.1,0L-325.6,375.6z"/>
</svg>
