<?xml version="1.0" encoding="utf-8"?>
<!-- Generator: Adobe Illustrator 19.1.0, SVG Export Plug-In . SVG Version: 6.00 Build 0)  -->
<svg version="1.1" id="Layer_1" xmlns="http://www.w3.org/2000/svg" xmlns:xlink="http://www.w3.org/1999/xlink" x="0px" y="0px"
	 viewBox="-617 878.2 183 230" style="enable-background:new -617 878.2 183 230;" xml:space="preserve">
<style type="text/css">
	.st0{fill:#FFFFFF;}
	.st1{fill:#1A1A18;}
	.st2{fill:#C3181C;}
	.st3{fill:#972524;}
	.st4{fill:#E2000F;}
	.st5{fill:#C61829;}
</style>
<path class="st0" d="M-544.1,924.2c-5.2-18.8,1.1-19.6,20-21.3c19.4,0.8,24.3,3.4,18.1,21.9c-2.8,3.8-7.6-1.8-18.8-1.5
	S-542.2,928.8-544.1,924.2z M-442.8,917l-19.9,19.6l-10.1-8l6,12l-10.3,8.7l-5.8-6.5c2.3-4.7,4.3-9.9,5.9-15.5
	c7.2-24.7-1.2-48.4-47.2-48s-57.4,23.7-47.2,48.4c2.1,5,4.2,9.8,6.4,14.2c-3,2.7-5.8,5.7-8.2,9l-9.4-8l6.4-11.3l-10.1,7.9
	l-20.9-19.6l-8.4,9.7l23,18.2c-14,17.1-23.8,40.2-17,62.7l15.4-6.6c-2.7-20.5-3.3-37.6,6.1-53.1l10.4,7.1c-4.1,7.8-6.5,16.6-6.5,26
	c0,31.6,26.7,57.3,59.7,57.3s59.7-25.7,59.7-57.3c0-10.3-2.8-20-7.8-28.4l10.9-7.2c10.2,15.2,15.8,34.1,7.7,55.5l17.2,6
	c4.8-27.6-9.8-49.1-21.1-65l23.4-16.9L-442.8,917z"/>
<path class="st1" d="M-524.4,1042.2c-33.5,0-60.7-26.2-60.7-58.3c0-9,2.1-17.6,6.2-25.7l-8.8-6c-8.2,14.3-8.2,29.8-5.4,51.5l0.1,0.7
	l-17.1,7.3l-0.3-1.1c-6-19.5,0.1-42.4,16.5-62.7l-23.1-18.3l9.8-11.3l21,19.7l13.4-10.5l-8.5,15l8,6.8c2.1-2.8,4.5-5.4,7.1-7.7
	c-2-3.8-3.9-8.2-6.1-13.6c-5-12.2-4.6-23.6,1.1-32.1c7.5-11.4,23.8-17.5,47-17.7c21.8-0.2,36.7,4.9,44.5,15.2c6,8,7.5,18.9,4.3,31.7
	l12.6,10l20.1-19.8l9.7,12.6l-23.5,16.9c10.4,14.7,25.6,36.6,20.7,65l-0.2,1.2l-19.3-6.7l0.4-1c6.8-18,4.4-36.1-7.1-53.7l-9.3,6.1
	c4.9,8.6,7.5,18.2,7.5,28.1C-463.7,1016-490.9,1042.2-524.4,1042.2z M-588.4,949.3l12.1,8.2l-0.4,0.8c-4.2,7.9-6.4,16.5-6.4,25.5
	c0,31,26.3,56.3,58.7,56.3c32.4,0,58.7-25.3,58.7-56.3c0-9.8-2.7-19.4-7.7-27.9l-0.5-0.8l12.5-8.3l0.6,0.8
	c12.1,18.1,14.9,36.8,8.2,55.4l15.1,5.3c4.2-27.5-11-48.9-21.1-63.1l-0.6-0.8l23.4-16.9l-7.1-9.2l-19.7,19.5l-7.2-5.7l4.3,8.6
	l-11.6,9.8l-6.9-7.7l0.3-0.6c2.2-4.5,4.2-9.7,5.8-15.3c2.7-9.2,4.3-22.3-3.3-32.3c-7.5-9.7-21.9-14.6-43-14.4
	c-22.5,0.2-38.2,6-45.4,16.8c-5.4,8.1-5.7,18.6-0.9,30.3c2.3,5.7,4.4,10.1,6.4,14.1l0.4,0.7l-0.6,0.5c-3,2.7-5.7,5.6-8.1,8.8
	l-0.6,0.8l-10.9-9.3l4.3-7.6l-6.8,5.3l-20.7-19.4l-7,8.1l23,18.2l-0.6,0.8c-16.2,19.7-22.4,41.8-17.2,60.7l13.6-5.8
	c-2.8-22.2-2.7-38.1,6.3-53L-588.4,949.3z M-481.7,942.5l4.7,5.3l9-7.6l-7.4-14.9c-0.2,0.7-0.4,1.4-0.6,2.1
	C-477.6,933-479.5,938.2-481.7,942.5z M-541.2,927c-1.7,0-3.1-0.6-3.9-2.6v-0.1c-2.3-8.4-2.4-13.3-0.1-16.5c3.1-4.4,10.2-5.1,21-6
	h0.1h0.1c10.8,0.4,17.2,1.5,20,5.5c2.3,3.4,2,8.5-1.1,17.7l-0.1,0.3c-1.9,2.6-4.5,1.8-7.9,0.8c-2.9-0.9-6.6-2-11.7-1.8
	c-4.5,0.1-8.2,1.1-11.1,1.8C-537.9,926.7-539.7,927-541.2,927z M-543.2,923.8c0.7,1.7,2,1.6,6.7,0.4c3-0.8,6.8-1.8,11.5-1.9
	c5.4-0.2,9.4,1,12.3,1.9c3.4,1,4.6,1.3,5.6,0.1c2.8-8.3,3.2-13,1.3-15.8c-2.3-3.4-8.5-4.3-18.4-4.7c-10.2,0.9-16.9,1.5-19.5,5.2
	C-545.4,911.7-545.3,916.2-543.2,923.8z"/>
<path class="st1" d="M-469.2,982.6c-1-24.1-8.8-29-16.8-39.8c2.1-4.5,1.4,0,5.5-14.5c4-14.5,4.8-45.3-43.5-45.6
	c-48.3-0.2-49.1,31.7-43.5,46c5.7,14.3,4.5,9.4,6.6,13.6c-8,10.7-16.4,16.5-18.3,40.3c-1.8,23.9,20.9,54.3,55,55
	C-490,1038.2-468.2,1006.8-469.2,982.6z M-503.1,928.5c-2.5,3.6-11.2-1.7-21.5-1.4c-10.3,0.2-19.5,4.9-21.2,0.4
	c-11.8-21.7,0.6-28.3,22.2-27.7C-501.1,899.2-492.7,909.3-503.1,928.5z"/>
<path class="st1" d="M-523.2,1037.9c-0.4,0-0.7,0-1.1,0c-15.8-0.3-30.4-7-41.2-19c-9.7-10.7-14.9-24.3-14-36.3
	c1.5-19.7,7.7-27.3,14.2-35.2c1.3-1.6,2.7-3.3,4.1-5.1c-0.6-1.2-0.9-1.6-1.2-2c-0.7-0.9-1.4-1.8-5.3-11.5
	c-3.1-7.8-4.2-20.5,2.8-30.7c7.1-10.4,20.6-15.7,40.3-15.7c0.2,0,0.4,0,0.6,0c19.1,0.1,32.4,5,39.6,14.5c8.5,11.3,5.8,25.8,4.2,31.5
	c-2.9,10.4-3.4,11.1-4.2,12.2c-0.3,0.5-0.7,1-1.2,2.1c1.3,1.8,2.7,3.4,3.9,5c6.4,7.9,12,14.7,12.8,34.8c0.6,13.2-5.7,28.2-16.3,39
	C-495.5,1032.2-508.9,1037.9-523.2,1037.9z M-524.6,883c-19.5,0-32.9,5.2-39.9,15.4c-6.8,10-5.7,22.5-2.7,30.1
	c3.8,9.7,4.5,10.5,5.2,11.4c0.3,0.4,0.7,0.8,1.4,2.2l0.1,0.2l-0.1,0.1c-1.4,1.9-2.8,3.6-4.2,5.3c-6.4,7.9-12.5,15.3-14,34.9
	c-0.9,11.9,4.3,25.3,13.9,35.9c10.7,11.8,25.2,18.5,40.8,18.8c14.4,0.3,28.1-5.4,38.5-16.1c10.5-10.7,16.7-25.5,16.1-38.6
	c-0.8-19.9-6.3-26.7-12.7-34.5c-1.3-1.6-2.7-3.3-4.1-5.2l-0.1-0.1l0.1-0.2c0.6-1.3,1-1.9,1.4-2.4c0.8-1.1,1.3-1.8,4.1-12.1
	c1.6-5.6,4.3-19.9-4.1-31c-7.1-9.2-20.2-14-39.1-14.1C-524.2,883-524.4,883-524.6,883z M-506.2,930c-1.6,0-3.7-0.5-6.2-1
	c-3.4-0.8-7.7-1.8-12.2-1.6c-3.8,0.1-7.4,0.8-10.6,1.5c-5.4,1.1-9.6,1.9-10.8-1.2c-4.8-8.9-5.8-15.8-3-20.5c3.3-5.4,11.9-8,25.4-7.6
	c11.9-0.4,20,2.3,23.3,7.8c3.1,5.1,2.2,12.2-2.6,21.2C-503.6,929.7-504.8,930-506.2,930z M-523.8,926.8c4.3,0,8.3,0.9,11.6,1.7
	c4.4,1,7.6,1.7,8.9-0.1c4.8-8.8,5.7-15.7,2.6-20.7c-3.3-5.3-11.2-7.9-22.9-7.6c-13.4-0.4-21.8,2.1-25,7.3c-2.8,4.5-1.8,11.2,3,19.9
	l0,0c1,2.7,4.9,1.9,10.2,0.8c3.2-0.6,6.9-1.4,10.7-1.5C-524.4,926.8-524.1,926.8-523.8,926.8z"/>
<path class="st2" d="M-523.9,933.8c27.4,0,49.7,22.3,49.7,49.7c0,27.4-22.3,49.7-49.7,49.7c-27.4,0-49.7-22.3-49.7-49.7
	C-573.6,956.2-551.4,933.8-523.9,933.8"/>
<path class="st0" d="M-565.9,973.3c37.1,8,71.9,15,84.7,11.5c-0.9,7-2.8,13.2-6.2,18.2c-13.2-19.9-37.9-12.6-65.8,4.4
	c-4.4-3.6-7.4-7.9-8.7-13.1c6.1-3,13.2-5.5,21.3-7.5c-9.1-0.4-17.2-0.3-24.3,0.3C-566.3,982.8-566.6,978.2-565.9,973.3"/>
<path class="st1" d="M-566,973.2c29.6,5.5,59.6,10.4,85.1,11.4C-499.7,990.5-532,981.5-566,973.2z"/>
<path class="st1" d="M-495.4,986.8c-17.1,0-39.6-5.6-63.1-11.3c-2.5-0.6-5.1-1.3-7.6-1.9l0.1-0.6c27.2,5.1,58.5,10.4,85.1,11.4
	l1.7,0.1l-1.6,0.5C-485,986.2-490,986.8-495.4,986.8z M-556.7,975.2c29.3,7.2,56.8,13.9,74,9.6
	C-505.9,983.8-532.5,979.7-556.7,975.2z"/>
<path class="st1" d="M-534.1,1003.8c16.9-10.1,29.5-14.2,38.3-2.1C-508.4,994.2-515,997.7-534.1,1003.8z"/>
<path class="st1" d="M-536.4,1004.8l2.1-1.3c9.7-5.8,16.6-8.7,22.3-9.4c6.8-0.8,12.2,1.6,16.4,7.4l0.8,1.1l-1.2-0.7
	c-11.3-6.7-17.6-4.6-32.8,0.4c-1.6,0.5-3.4,1.1-5.2,1.7L-536.4,1004.8z M-509.4,994.5c-6.3,0-13.7,3.2-22.4,8.3
	c1-0.3,1.9-0.6,2.8-0.9c14.9-4.9,21.3-7,32.1-1.1C-500.5,996.5-504.6,994.5-509.4,994.5z"/>
<path class="st0" d="M-511.6,966.5c-8.9,11.5-42.3,6.1-35.7-20.3L-511.6,966.5z"/>
<path class="st0" d="M-500.1,967c4.4,9.4,14.4,3.9,15.5-8.7C-489.9,960.3-495.9,963.5-500.1,967"/>
<path class="st1" d="M-549.7,945c17.1,9.6,35.7,20.4,44.4,26.2c6.7-5.9,14.5-10.3,20.6-13c-6,1.2-12.6,3.5-18.6,6.6
	c-0.6-11.1-3.9-19.3-8.4-25.2c3,7.5,5.7,16.8,4.8,25.5C-510.7,961.8-536,950.2-549.7,945z"/>
<path class="st1" d="M-505.3,971.7l-0.2-0.1c-10-6.7-32.1-19.3-44.4-26.2l-3.1-1.9l3.4,1.3c13.2,4.9,37.5,16.1,42.5,19.8
	c0.6-7-1-15.2-4.8-24.9l-0.8-2l1.3,1.7c5,6.6,7.8,15,8.4,24.9c5.7-2.9,12.2-5.2,18.3-6.4l2.5-0.5l-2.3,1c-4.4,2-13,6.3-20.5,13
	L-505.3,971.7z M-546.1,946.7c12.5,7.1,31.6,18,40.8,24.2c6.4-5.6,13.5-9.5,18.2-11.8c-5.4,1.3-11,3.4-16,6l-0.4,0.2v-0.4
	c-0.5-9.1-2.8-16.9-7-23.2c3.4,9.1,4.7,16.8,4,23.5l-0.1,0.5l-0.4-0.4C-510.6,962.3-532.1,952.2-546.1,946.7z"/>
<path class="st1" d="M-517.5,962.8c-10.3,7.5-19.8,0.1-26.2-11.6l9.7,5.1l-5.7-5.7L-517.5,962.8z"/>
<path class="st1" d="M-497.6,965c4.2,5.3,6.8,0,11.2-4.8l-3,1.8l0.6-2.1L-497.6,965z"/>
<path class="st1" d="M-494.2,967.5L-494.2,967.5c-1.2,0-2.4-0.8-3.6-2.3l-0.2-0.3l9.6-5.6l-0.6,2l4.1-2.4l-1.3,1.4
	c-0.7,0.8-1.4,1.7-2.1,2.5C-490.4,965.2-492.2,967.5-494.2,967.5z M-497.2,965c1,1.2,2,1.8,2.9,1.9l0,0c1.8,0,3.5-2.1,5.5-4.5
	c0.3-0.4,0.6-0.8,1-1.2l-2.1,1.3l0.6-2.1L-497.2,965z"/>
<path class="st3" d="M-565.7,956.7c-11.5,46.8,26.2,93.9,83.3,54.4C-519.7,1063.8-601.2,1013.8-565.7,956.7"/>
<path class="st0" d="M-506.9,929.2c12.1,4.6,21.5-1.6,29.2-11.2l-0.3-6.4c-8.5,10.6-22.1,18.5-26.1,12.3L-506.9,929.2z"/>
<path class="st0" d="M-543.1,929c-19.2-2-23.9-19-26.4-31.7c1.2-0.6,4.8-4.3,4.1-3.2c-2.8,4.5,12.3,33.9,20.4,29.7L-543.1,929z"/>
<path class="st4" d="M-598.9,1002.8l-6.9,3c-7.7-22.9,10.9-56.8,24.8-68.6C-598.4,957.5-607.2,980.5-598.9,1002.8 M-440.3,1005
	l-8.7-2.4c7.9-31.3-6.8-49.6-19.8-69.1C-450.6,954.3-435.9,983.3-440.3,1005z"/>
<polygon class="st1" points="-607.3,924 -575.7,952.8 -577,954.5 -611,928.3 "/>
<path class="st1" d="M-577,955l-34.4-26.5l4-4.8l32,29.2L-577,955z M-610.5,928.3l33.4,25.9l1-1.3l-31.2-28.5L-610.5,928.3z"/>
<polygon class="st1" points="-442,921.8 -474.7,950.2 -472.6,952.8 -438.4,926 "/>
<path class="st1" d="M-472.7,953.2l-2.3-2.9l33-28.9l4,4.8L-472.7,953.2z M-474.3,950.2l1.7,2.1l33.8-26.3l-3.2-3.9L-474.3,950.2z"
	/>
<path class="st1" d="M-446.5,1039.7l-15.5-8.4l-3.3,5.8l-7.8-4.2l11.6-20.4l7.8,4.2l-3.3,5.8l15.5,8.4L-446.5,1039.7z
	 M-460.2,1056.4l-19.1-18.1l7.1-7.2l19.1,18.1L-460.2,1056.4z M-482.4,1072.7l-14.1-22l18.5-11.3l4.5,7l-9.8,6l1.6,2.5l9.8-6
	l3.9,6.2l-9.8,6l4.1,6.3L-482.4,1072.7z M-510.6,1081.1l-1.6-6.4c1.7-0.2,3.3-0.3,4.8-0.6c1.5-0.2,2.8-0.5,3.9-0.8
	c1.3-0.3,2.1-0.6,2.5-1c0.4-0.3,0.5-0.8,0.4-1.4c-0.3-1-1.5-1.3-3.8-0.8c-1,0.2-1.8,0.4-2.3,0.5c-1.5,0.3-2.6,0.4-3.4,0.3
	c-0.8-0.1-1.5-0.3-2.1-0.7c-0.8-0.5-1.4-1.2-2-2.1c-0.6-0.9-1-2.1-1.4-3.5c-0.8-3.2-0.5-5.6,0.8-7.4c1.3-1.8,4-3.1,7.9-4.1
	c1.3-0.3,2.8-0.6,4.6-0.9c1.7-0.3,3.8-0.5,6.1-0.8l2,7.7c-1.6,0.2-2.9,0.3-4.1,0.5c-1.1,0.2-2.2,0.4-3.1,0.6c-2,0.5-3.3,0.9-3.8,1.3
	c-0.5,0.4-0.7,0.9-0.5,1.6c0.1,0.5,0.4,0.8,0.9,1c0.5,0.1,1.2,0.1,2.2-0.2l1.4-0.3c3.3-0.8,5.6-0.8,7.1-0.1c1.5,0.8,2.6,2.5,3.3,5.2
	c0.7,2.9,0.5,5.2-0.8,6.9c-1.3,1.7-3.8,3-7.5,3.9c-1.4,0.3-3,0.6-4.9,0.9C-506.2,1080.7-508.3,1080.8-510.6,1081.1z M-537.4,1081.2
	l0.2-6.6c1.7,0.3,3.3,0.6,4.8,0.7c1.5,0.2,2.8,0.3,4,0.3c1.3,0,2.2,0,2.7-0.3c0.5-0.2,0.7-0.6,0.8-1.3c0-1.1-1.1-1.7-3.4-1.8
	c-1,0-1.8-0.1-2.4-0.1c-1.5-0.1-2.6-0.4-3.4-0.6c-0.7-0.3-1.4-0.7-1.9-1.3c-0.6-0.7-1-1.5-1.3-2.6c-0.3-1.1-0.4-2.3-0.4-3.7
	c0.1-3.3,1.1-5.6,2.8-6.9c1.8-1.3,4.7-1.9,8.8-1.8c1.4,0,2.9,0.2,4.6,0.4c1.7,0.2,3.8,0.5,6.1,0.9l-0.3,7.9c-1.5-0.3-2.9-0.5-4-0.6
	c-1.2-0.1-2.2-0.2-3.1-0.3c-2.1-0.1-3.4,0-4.1,0.2c-0.6,0.2-0.9,0.7-1,1.4c0,0.5,0.2,0.9,0.6,1.2c0.4,0.2,1.2,0.4,2.2,0.4h1.4
	c3.4,0.1,5.6,0.7,6.9,1.9c1.3,1.2,1.8,3.1,1.7,5.9c-0.1,3-1,5.1-2.8,6.4c-1.7,1.3-4.5,1.8-8.3,1.7c-1.4,0-3.1-0.2-5-0.4
	C-533,1082.1-535.1,1081.8-537.4,1081.2z M-555.8,1077.6c-4.5-1.6-7.3-3.8-8.5-6.8c-1.2-2.9-0.9-6.8,0.9-11.7
	c1.6-4.2,3.7-6.9,6.5-8.1c2.8-1.2,6.4-1,10.8,0.6c4.4,1.6,7.3,3.7,8.7,6.4c1.3,2.7,1.2,6.1-0.3,10.2c-1.8,4.8-4.1,8-7,9.5
	C-547.6,1079.2-551.3,1079.2-555.8,1077.6z M-553,1070.1c1.2,0.4,2.3,0.3,3.3-0.3c1-0.7,1.8-1.9,2.4-3.6c0.6-1.6,0.7-2.8,0.4-3.8
	c-0.3-1-1.1-1.7-2.4-2.2c-1.2-0.4-2.3-0.4-3.2,0.2s-1.7,1.6-2.2,3.1c-0.7,1.8-0.9,3.2-0.6,4.4C-555,1068.8-554.2,1069.6-553,1070.1z
	 M-593.7,1051.3l18.1-19l13,11.8c2.2,2,3.5,3.9,3.7,5.7c0.2,1.8-0.6,3.6-2.3,5.4s-3.5,2.8-5.3,2.9s-3.6-0.5-5.4-2l-1.5,13.6
	l-8.6-7.8l1.3-7c0.1-0.7,0.3-1.4,0.5-2.1c0.2-0.7,0.4-1.4,0.7-2l-0.2-0.2c-0.4,0.5-0.8,1-1.2,1.5c-0.5,0.5-1.1,1.2-2,2.2l-3.4,3.6
	L-593.7,1051.3z M-576.7,1047.9l1.5,1.4c1.2,1.1,2.1,1.6,2.9,1.7c0.8,0.1,1.5-0.2,2.2-1c0.6-0.6,0.8-1.3,0.7-1.9
	c-0.2-0.6-0.8-1.5-2-2.5l-1.7-1.6L-576.7,1047.9z M-598.1,1043.6c-1.4-1.4-2.6-2.8-3.7-4.1c-1.1-1.4-2-2.7-2.7-4.1
	c-2-3.6-2.4-6.8-1.2-9.7c1.2-2.8,3.9-5.4,8.3-7.7c4.2-2.2,7.7-2.9,10.5-2.1c2.8,0.8,5.3,3.1,7.4,7c0.8,1.4,1.4,2.9,2,4.5
	s1,3.2,1.4,4.8l-8,4.2c-0.5-1.4-1-2.5-1.4-3.6c-0.4-1-0.9-1.9-1.2-2.6c-0.9-1.7-1.9-2.7-2.8-3.1c-1-0.4-2.1-0.2-3.6,0.5
	c-1.5,0.8-2.3,1.7-2.6,2.7c-0.3,1.1,0,2.4,0.9,4c0.5,0.9,1,1.7,1.7,2.6c0.7,0.9,1.5,1.9,2.4,2.8L-598.1,1043.6z"/>
<path class="st5" d="M-478.8,1089.8l1.1-0.5c0.9-0.4,1.5-0.3,1.8,0.4c0.2,0.4,0.2,0.9,0,1.2c-0.2,0.4-0.6,0.7-1.2,1l-1.9,0.9
	c-0.5,0.2-1,0.3-1.4,0.2c-0.4-0.1-0.7-0.4-0.9-0.8c-0.1-0.2-0.2-0.6-0.2-1.3l-0.4-12.7v-0.3c0-1,0.3-1.6,1-1.9
	c0.3-0.1,0.6-0.1,0.9,0c0.3,0.1,0.5,0.3,0.6,0.6c0.1,0.2,0.2,0.5,0.2,0.8v0.3L-478.8,1089.8z M-484.6,1092.3l1.2-0.4
	c0.9-0.4,1.5-0.2,1.8,0.4c0.2,0.4,0.1,0.9-0.1,1.2c-0.2,0.4-0.6,0.7-1.2,0.9l-2,0.8c-0.5,0.2-1,0.2-1.4,0.1
	c-0.4-0.1-0.7-0.4-0.9-0.9c-0.1-0.2-0.1-0.6-0.1-1.3l0.2-12.7v-0.3c0-1,0.4-1.6,1.1-1.9c0.3-0.1,0.6-0.1,0.9,0
	c0.3,0.1,0.5,0.3,0.6,0.6c0.1,0.2,0.1,0.5,0.1,0.8v0.3L-484.6,1092.3z M-493.9,1092.3l1.3-0.3c0.8-0.2,1.2-0.5,1-0.9
	c-0.1-0.4-0.4-0.5-1-0.4C-493.2,1090.9-493.7,1091.4-493.9,1092.3z M-493.9,1094.6c0.2,0.6,0.7,0.7,1.5,0.5l3.4-0.9
	c1-0.3,1.5,0,1.7,0.6c0.1,0.5,0.1,0.9-0.2,1.2c-0.3,0.4-0.7,0.6-1.3,0.8l-3.2,0.9c-1.2,0.3-2.2,0.3-3-0.2c-0.8-0.4-1.3-1.2-1.6-2.4
	c-0.4-1.5-0.2-2.9,0.5-4.2c0.7-1.3,1.8-2.2,3.1-2.6c1-0.3,1.9-0.2,2.6,0.1c0.7,0.4,1.2,1,1.5,1.8c0.3,1,0.1,1.9-0.6,2.6
	c-0.4,0.4-1,0.7-2,1L-493.9,1094.6z M-503.3,1091.8c0.7-0.6,1.4-0.9,1.9-1c0.8-0.1,1.4,0,1.9,0.3c0.5,0.3,0.9,0.8,1,1.5
	c0.1,0.4,0,0.8-0.1,1.3l-0.7,3.3l1.3-0.2c1-0.2,1.5,0.1,1.6,0.8c0.1,0.5,0,0.9-0.3,1.2c-0.3,0.3-0.8,0.5-1.4,0.6l-2.4,0.4
	c-0.5,0.1-0.9,0-1.3-0.2c-0.4-0.2-0.6-0.6-0.7-1c0-0.3,0-0.7,0.1-1.1l0.7-2.8c0.1-0.4,0.1-0.6,0.1-0.8c-0.1-0.4-0.4-0.6-1-0.5
	c-0.8,0.1-1.4,0.9-1.7,2.4l-0.8,3.4c-0.3,1.1-0.8,1.7-1.6,1.8c-0.3,0.1-0.6,0-0.9-0.2c-0.3-0.2-0.4-0.4-0.5-0.7c0-0.2,0-0.5,0.1-0.8
	l0.1-0.3l3.1-13.4c0.3-1.1,0.8-1.8,1.6-1.9c0.3-0.1,0.6,0,0.9,0.2c0.3,0.2,0.4,0.4,0.5,0.7c0,0.3,0,0.6-0.1,1.2L-503.3,1091.8z
	 M-515.6,1090.9l2.8-0.2c1.6-0.1,2.4-0.6,2.3-1.6c0-0.4-0.2-0.6-0.6-0.8c-0.3-0.2-0.8-0.3-1.3-0.2c-0.9,0.1-1.6,0.4-2.3,1
	C-515.2,1089.7-515.6,1090.3-515.6,1090.9z M-513.9,1093.8l1.2,1.3l0.7,0.7c1.3,1.4,2,3,2.2,4.6c0.1,1.6-0.3,3.1-1.3,4.4
	c-1.3,1.8-3.2,2.8-5.6,2.9c-1.8,0.1-3.4-0.3-4.6-1.4c-1.3-1.1-1.9-2.5-2.1-4.2c-0.2-2.2,0.6-4,2.4-5.6c0.9-0.8,1.8-1.3,2.6-1.3
	c0.4,0,0.8,0.1,1.1,0.3c0.3,0.2,0.4,0.5,0.5,0.9c0,0.5-0.2,1-0.8,1.4l-0.9,0.6c-0.5,0.4-0.9,0.9-1.3,1.5c-0.3,0.6-0.5,1.2-0.4,1.8
	c0.1,0.9,0.4,1.7,1.1,2.3c0.7,0.6,1.5,0.8,2.5,0.7c1.1-0.1,2-0.5,2.7-1.4s1.1-1.8,1-2.9c0-0.7-0.3-1.3-0.6-1.9
	c-0.4-0.5-1.1-1.4-2.3-2.5c-0.8-0.8-1.4-1.5-1.8-2.1l-3.2,0.2c-1.1,0.1-1.7-0.3-1.7-1c0-0.5,0.1-1,0.5-1.3c0.4-0.3,0.9-0.5,1.6-0.6
	l2-0.1c0-1.6,0.7-2.9,1.9-4c1.2-1.1,2.7-1.7,4.5-1.8c1.3-0.1,2.4,0.2,3.3,0.9c0.9,0.7,1.4,1.6,1.5,2.8c0.1,1.6-0.5,2.8-1.7,3.7
	c-0.7,0.5-1.9,0.8-3.6,1L-513.9,1093.8z M-537.2,1098.8h0.4c0.5,0.1,0.9-0.1,1.1-0.5l1.1-2.1c0.1-0.3,0.2-0.5,0.2-0.6
	c0-0.2-0.1-0.4-0.2-0.6c-0.2-0.2-0.4-0.3-0.7-0.3c-0.6-0.1-1.2,0.2-1.8,0.8c-0.6,0.6-0.9,1.3-1,2.1
	C-538.2,1098.4-537.9,1098.8-537.2,1098.8z M-532.9,1099.2l1.3,0.1c1,0.1,1.5,0.5,1.4,1.2c-0.1,0.5-0.3,0.8-0.6,1.1
	c-0.4,0.2-0.9,0.3-1.5,0.2l-1.6-0.2c-0.6-0.1-1-0.4-1.3-0.9c-0.6,0.4-1.1,0.6-1.7,0.6l-1.5-0.2c-0.9-0.1-1.5-0.5-2-1.1
	c-0.5-0.6-0.6-1.5-0.5-2.5c0.2-1.5,0.8-2.8,2-3.9c1.2-1.1,2.4-1.6,3.7-1.4c1,0.1,1.7,0.5,2.2,1.3l3.3-6.2c0.6-1.1,1.2-1.5,2-1.5
	c0.3,0,0.6,0.2,0.8,0.4c0.2,0.2,0.3,0.5,0.3,0.8c0,0.2-0.1,0.5-0.3,0.8l-0.2,0.3L-532.9,1099.2z M-546.2,1094.3l1.3,0.3
	c0.8,0.2,1.3,0.1,1.3-0.3c0.1-0.4-0.2-0.7-0.7-0.8C-545,1093.4-545.6,1093.8-546.2,1094.3z M-547.2,1096.3c-0.1,0.6,0.3,1,1.1,1.1
	l3.4,0.7c1,0.2,1.4,0.7,1.2,1.3c-0.1,0.5-0.3,0.8-0.7,1c-0.4,0.2-0.9,0.2-1.5,0.1l-3.3-0.7c-1.2-0.3-2.1-0.8-2.6-1.5
	c-0.5-0.7-0.6-1.7-0.4-2.8c0.3-1.5,1.1-2.7,2.3-3.5c1.2-0.9,2.6-1.2,3.9-0.9c1,0.2,1.8,0.7,2.3,1.3c0.5,0.7,0.7,1.4,0.5,2.3
	c-0.2,1-0.8,1.7-1.8,2c-0.5,0.2-1.3,0.2-2.2,0L-547.2,1096.3z M-554.7,1089.1l0.3,0.1c0.9,0.3,1.6,0.3,2.1,0.2c1-0.2,1.6-0.8,2-1.7
	c0.4-1,0.1-1.7-0.9-2.1l-0.2-0.1L-554.7,1089.1z M-552.9,1092.1l0.3,6.4c0,0.8,0.3,1.3,0.8,1.5l0.4,0.2l4.7,1.7
	c1,0.4,1.4,0.9,1.2,1.6c-0.2,0.5-0.5,0.8-1,1c-0.5,0.2-1,0.1-1.7-0.1l-5.1-1.9c-1.4-0.5-2.1-1.5-2.2-3.1l-0.4-8.9l-2.8,3.1
	c-1.4,1.5-2.3,2.5-2.8,3s-1.1,1-1.7,1.3c-2.1,1.4-4.2,1.7-6.4,0.9c-1.6-0.6-2.7-1.5-3.3-2.9c-0.6-1.3-0.6-2.8-0.1-4.4
	c0.8-2.1,2.2-3.6,4.3-4.6c1.1-0.5,2.4-0.8,3.8-0.9c1.4-0.1,2.7,0.1,4,0.6c0.6,0.2,1,0.5,1.3,0.9c0.3,0.4,0.3,0.8,0.2,1.2
	c-0.2,0.5-0.5,0.8-1,0.9c-0.3,0.1-0.8,0-1.4-0.1c-1.5-0.4-2.8-0.5-3.9-0.3c-0.9,0.2-1.7,0.6-2.4,1.1c-0.7,0.6-1.2,1.2-1.5,2
	c-0.3,0.8-0.3,1.6-0.1,2.2c0.3,0.6,0.7,1.1,1.5,1.4c0.9,0.3,1.8,0.2,2.8-0.3c0.9-0.5,2.2-1.6,3.7-3.3l7.3-8.1l-1.1-0.4
	c-1-0.4-1.4-0.9-1.1-1.6c0.2-0.5,0.5-0.8,1-1c0.5-0.1,1-0.1,1.7,0.1l3.7,1.3c1,0.4,1.6,0.7,2.1,0.9c0.4,0.3,0.8,0.7,1,1.2
	c0.6,1,0.7,2.2,0.2,3.5c-0.4,1.2-1.2,2.1-2.2,2.8C-550.5,1091.8-551.7,1092.2-552.9,1092.1z"/>
<path class="st4" d="M-517.4,1107.8c-1.6,0-3-0.5-4.1-1.4c-1.3-1.1-2-2.5-2.1-4.3c-0.2-2.2,0.7-4.1,2.4-5.7c0.9-0.8,1.8-1.3,2.7-1.4
	c0.5,0,0.8,0.1,1.1,0.3c0.3,0.2,0.5,0.6,0.5,1c0,0.6-0.3,1.1-0.9,1.5l-0.9,0.6c-0.5,0.4-0.9,0.9-1.2,1.5c-0.3,0.6-0.4,1.2-0.4,1.8
	c0.1,0.9,0.4,1.6,1.1,2.2c0.7,0.5,1.5,0.8,2.4,0.7c1-0.1,1.9-0.5,2.7-1.4c0.7-0.8,1-1.8,1-2.9c0-0.7-0.2-1.3-0.6-1.8
	c-0.4-0.5-1.1-1.4-2.3-2.5c-0.8-0.7-1.4-1.4-1.7-2l-3.1,0.2c-1.1,0.1-1.8-0.3-1.8-1.1c0-0.6,0.1-1,0.5-1.4c0.4-0.3,0.9-0.5,1.6-0.6
	l1.9-0.1c0.1-1.6,0.7-2.9,1.9-4c1.2-1.1,2.7-1.8,4.5-1.9c1.4-0.1,2.5,0.2,3.4,0.9c0.9,0.7,1.4,1.6,1.5,2.8c0.1,1.6-0.5,2.9-1.8,3.8
	c-0.7,0.5-1.9,0.9-3.6,1l-1,0.1l1,1.1l0.7,0.7c1.3,1.4,2.1,3,2.2,4.7c0.1,1.6-0.3,3.1-1.3,4.5c-1.4,1.8-3.3,2.8-5.7,3
	C-517,1107.8-517.2,1107.8-517.4,1107.8z M-518.4,1095.2L-518.4,1095.2c-0.9,0.1-1.7,0.5-2.6,1.3c-1.7,1.5-2.5,3.4-2.3,5.5
	c0.1,1.7,0.8,3.1,2,4.1s2.8,1.5,4.6,1.4c2.3-0.2,4.2-1.1,5.5-2.9c1-1.3,1.4-2.7,1.3-4.3s-0.8-3.2-2.1-4.6l-0.7-0.7l-1.3-1.5l1.4-0.1
	c1.6-0.1,2.8-0.4,3.5-0.9c1.2-0.9,1.8-2.1,1.7-3.6c-0.1-1.1-0.6-2-1.4-2.7c-0.9-0.7-2-0.9-3.3-0.8c-1.7,0.1-3.2,0.7-4.4,1.8
	s-1.8,2.4-1.8,3.9v0.1l-2.1,0.1c-0.7,0-1.2,0.2-1.5,0.5c-0.3,0.3-0.5,0.7-0.4,1.2c0,0.7,0.6,1,1.6,0.9l3.3-0.2v0.1
	c0.4,0.6,1,1.3,1.7,2c1.2,1.1,1.9,2,2.3,2.5c0.4,0.6,0.6,1.2,0.6,1.9c0.1,1.1-0.3,2.1-1,3c-0.8,0.9-1.7,1.4-2.8,1.4
	c-1,0.1-1.9-0.2-2.6-0.8s-1.1-1.4-1.2-2.3c0-0.6,0.1-1.2,0.4-1.9c0.3-0.6,0.8-1.2,1.3-1.5l0.9-0.6c0.6-0.4,0.8-0.8,0.8-1.3
	c0-0.4-0.2-0.6-0.4-0.8C-517.8,1095.3-518.1,1095.2-518.4,1095.2z M-547.1,1104.7c-0.3,0-0.7-0.1-1.1-0.2l-5.1-1.9
	c-1.4-0.5-2.2-1.6-2.3-3.2l-0.4-8.7l-2.6,2.9c-1.4,1.5-2.3,2.5-2.8,3s-1.1,1-1.7,1.4c-2.1,1.4-4.3,1.7-6.5,0.9
	c-1.6-0.6-2.7-1.6-3.3-2.9c-0.6-1.4-0.6-2.9-0.1-4.5c0.8-2.1,2.2-3.7,4.3-4.7c1.1-0.5,2.4-0.8,3.9-0.9c1.4-0.1,2.8,0.1,4,0.6
	c0.6,0.2,1,0.5,1.3,0.9s0.3,0.9,0.2,1.3c-0.2,0.5-0.5,0.8-1.1,1c-0.3,0.1-0.8,0-1.5-0.1c-1.5-0.4-2.8-0.5-3.9-0.3
	c-0.9,0.2-1.7,0.6-2.4,1.1c-0.7,0.6-1.2,1.2-1.5,2c-0.3,0.8-0.3,1.5-0.1,2.1c0.2,0.6,0.7,1,1.4,1.3c0.9,0.3,1.8,0.2,2.7-0.3
	c0.9-0.5,2.1-1.6,3.6-3.3l7.2-8l-1-0.4c-0.5-0.2-0.9-0.4-1.1-0.7c-0.2-0.3-0.2-0.6-0.1-1c0.2-0.5,0.5-0.9,1-1.1
	c0.5-0.2,1.1-0.1,1.7,0.1l3.7,1.3c1,0.4,1.7,0.7,2.1,1c0.4,0.3,0.8,0.7,1.1,1.2c0.6,1.1,0.7,2.3,0.2,3.6c-0.4,1.2-1.2,2.2-2.2,2.8
	c-1,0.7-2.2,0.9-3.4,0.9l0.3,6.3c0,0.8,0.3,1.3,0.7,1.4l0.4,0.1l4.7,1.7c1.1,0.4,1.5,1,1.2,1.7c-0.2,0.5-0.5,0.9-1,1.1
	C-546.7,1104.7-546.9,1104.7-547.1,1104.7z M-555.8,1090.2l0.4,9.2c0.1,1.5,0.8,2.5,2.1,3l5.1,1.9c0.6,0.2,1.2,0.3,1.6,0.1
	c0.4-0.1,0.7-0.4,0.9-0.9c0.2-0.6-0.1-1.1-1.1-1.5l-5.1-1.8c-0.5-0.2-0.8-0.7-0.9-1.6l-0.3-6.6h0.1c1.2,0.1,2.4-0.2,3.4-0.8
	s1.7-1.6,2.2-2.7c0.5-1.3,0.4-2.4-0.2-3.4c-0.3-0.5-0.6-0.9-1-1.1c-0.4-0.3-1.1-0.6-2-0.9l-3.7-1.3c-0.6-0.2-1.2-0.3-1.6-0.1
	c-0.4,0.1-0.7,0.4-0.9,0.9c-0.1,0.3-0.1,0.6,0.1,0.8c0.2,0.2,0.5,0.5,1,0.6l1.3,0.5l-7.4,8.2c-1.5,1.7-2.7,2.8-3.7,3.3
	s-1.9,0.6-2.9,0.3c-0.8-0.3-1.3-0.8-1.5-1.4c-0.3-0.7-0.2-1.4,0.1-2.3c0.3-0.8,0.8-1.5,1.5-2.1c0.7-0.6,1.5-1,2.5-1.2
	c1.1-0.2,2.5-0.1,4,0.3c0.6,0.2,1.1,0.2,1.4,0.1c0.5-0.1,0.7-0.4,0.9-0.8c0.1-0.4,0.1-0.8-0.2-1.1c-0.3-0.4-0.7-0.7-1.2-0.9
	c-1.2-0.4-2.5-0.6-3.9-0.6c-1.4,0.1-2.7,0.4-3.8,0.9c-2.1,1-3.5,2.5-4.2,4.6c-0.6,1.6-0.5,3,0.1,4.3c0.6,1.3,1.7,2.2,3.2,2.8
	c2.1,0.8,4.2,0.5,6.3-0.9c0.6-0.4,1.1-0.8,1.7-1.3c0.5-0.5,1.4-1.5,2.8-3L-555.8,1090.2z M-531.9,1102.1c-0.1,0-0.3,0-0.4,0
	l-1.6-0.2c-0.6-0.1-1-0.3-1.3-0.8c-0.5,0.4-1.1,0.6-1.7,0.5l-1.5-0.2c-0.9-0.1-1.6-0.5-2.1-1.2c-0.5-0.7-0.7-1.5-0.6-2.5
	c0.2-1.5,0.8-2.9,2-4c1.2-1.1,2.4-1.6,3.8-1.5c0.9,0.1,1.6,0.5,2.1,1.2l3.2-6c0.6-1.1,1.3-1.6,2.2-1.5c0.4,0,0.7,0.2,0.9,0.5
	c0.2,0.3,0.3,0.6,0.3,0.9s-0.1,0.5-0.3,0.8l-0.2,0.3l-5.8,10.8l1.2,0.1c1.1,0.1,1.6,0.6,1.5,1.3c-0.1,0.5-0.3,0.9-0.7,1.1
	C-531.1,1101.9-531.5,1102.1-531.9,1102.1z M-535.1,1100.8L-535.1,1100.8c0.3,0.6,0.7,0.9,1.3,0.9l1.6,0.2c0.6,0.1,1.1,0,1.4-0.2
	c0.4-0.2,0.5-0.5,0.6-1c0.1-0.6-0.4-1-1.3-1.1l-1.5-0.2l6.1-11.4c0.1-0.3,0.2-0.5,0.2-0.8c0-0.3,0-0.5-0.2-0.7
	c-0.2-0.2-0.4-0.3-0.8-0.4c-0.8-0.1-1.4,0.4-1.9,1.4l-3.4,6.3l-0.1-0.2c-0.5-0.7-1.2-1.1-2.1-1.2c-1.2-0.1-2.5,0.3-3.6,1.4
	c-1.1,1.1-1.8,2.4-1.9,3.9c-0.1,1,0.1,1.8,0.5,2.4c0.4,0.6,1.1,1,1.9,1.1l1.5,0.2c0.5,0.1,1.1-0.1,1.6-0.6H-535.1z M-506.8,1101.3
	c-0.3,0-0.5-0.1-0.7-0.2c-0.3-0.2-0.5-0.4-0.5-0.8c0-0.2,0-0.5,0.1-0.8l3.2-13.7c0.3-1.2,0.8-1.9,1.7-2c0.3-0.1,0.7,0,1,0.2
	c0.3,0.2,0.5,0.5,0.5,0.8c0,0.3,0,0.7-0.1,1.2l-1.3,5.5c0.7-0.5,1.2-0.8,1.7-0.8c0.8-0.1,1.5,0,2,0.3c0.6,0.4,0.9,0.9,1,1.6
	c0.1,0.4,0,0.9-0.1,1.4l-0.7,3.1l1.2-0.2c0.5-0.1,0.9,0,1.2,0.1c0.3,0.2,0.5,0.4,0.5,0.8c0.1,0.5,0,0.9-0.4,1.3
	c-0.3,0.3-0.8,0.6-1.5,0.7l-2.4,0.4c-0.5,0.1-1,0-1.4-0.2c-0.4-0.2-0.7-0.6-0.7-1c0-0.3,0-0.7,0.1-1.2l0.7-2.8
	c0.1-0.3,0.1-0.6,0.1-0.7c0-0.2-0.1-0.3-0.2-0.4c-0.1-0.1-0.4-0.1-0.6,0c-0.7,0.1-1.3,0.9-1.6,2.3l-0.8,3.4
	c-0.3,1.1-0.8,1.8-1.7,1.9C-506.7,1101.3-506.8,1101.3-506.8,1101.3z M-502.9,1084.1c-0.1,0-0.1,0-0.2,0c-0.7,0.1-1.2,0.7-1.5,1.8
	l-3.2,13.7c-0.1,0.3-0.1,0.6-0.1,0.8c0,0.3,0.2,0.5,0.4,0.6c0.2,0.2,0.5,0.2,0.8,0.2c0.8-0.1,1.3-0.7,1.5-1.7l0.8-3.4
	c0.3-1.5,0.9-2.3,1.8-2.4c0.3-0.1,0.6,0,0.8,0.1c0.2,0.1,0.3,0.3,0.4,0.5c0,0.2,0,0.4-0.1,0.8l-0.7,2.8c-0.1,0.4-0.1,0.8-0.1,1.1
	c0.1,0.4,0.3,0.7,0.6,0.9c0.4,0.2,0.8,0.3,1.3,0.2l2.4-0.4c0.6-0.1,1-0.3,1.3-0.6c0.3-0.3,0.4-0.7,0.3-1.1c0-0.3-0.2-0.5-0.4-0.6
	c-0.3-0.1-0.6-0.1-1.1-0.1l-1.5,0.2l0.8-3.4c0.1-0.5,0.1-0.9,0.1-1.3c-0.1-0.6-0.4-1.1-0.9-1.4c-0.5-0.3-1.1-0.4-1.9-0.3
	c-0.5,0.1-1.1,0.4-1.9,1l-0.2,0.2l1.4-6.1c0.1-0.5,0.2-0.9,0.1-1.1c0-0.3-0.2-0.5-0.4-0.6C-502.5,1084.2-502.7,1084.1-502.9,1084.1z
	 M-542.9,1100.8c-0.2,0-0.5,0-0.7-0.1l-3.3-0.7c-1.2-0.3-2.1-0.8-2.7-1.5c-0.5-0.8-0.7-1.7-0.4-2.9c0.3-1.5,1.1-2.7,2.4-3.6
	c1.3-0.9,2.6-1.2,4-0.9c1,0.2,1.8,0.7,2.3,1.4c0.5,0.7,0.7,1.5,0.5,2.4c-0.2,1.1-0.8,1.8-1.8,2.1c-0.5,0.2-1.3,0.2-2.3,0l-2.2-0.5
	c0,0.2,0,0.7,1.1,0.9l3.4,0.7c0.5,0.1,0.9,0.3,1.1,0.5c0.2,0.2,0.3,0.6,0.2,0.9c-0.1,0.5-0.4,0.9-0.8,1.1
	C-542.3,1100.8-542.6,1100.8-542.9,1100.8z M-544.7,1091.2c-1,0-1.9,0.3-2.8,0.9c-1.2,0.8-2,2-2.3,3.5c-0.2,1.1-0.1,2,0.4,2.8
	c0.5,0.7,1.3,1.2,2.5,1.4l3.3,0.7c0.6,0.1,1.1,0.1,1.5-0.1c0.4-0.2,0.6-0.5,0.7-0.9c0.1-0.3,0-0.6-0.2-0.8c-0.2-0.2-0.5-0.4-1-0.5
	l-3.4-0.7c-0.9-0.2-1.3-0.6-1.2-1.3v-0.1l2.4,0.5c0.9,0.2,1.6,0.2,2.1,0c0.9-0.3,1.5-1,1.7-2c0.2-0.8,0-1.6-0.5-2.2
	s-1.2-1.1-2.2-1.3C-544,1091.2-544.3,1091.2-544.7,1091.2z M-536.6,1099.1c-0.1,0-0.1,0-0.2,0h-0.4c-0.4,0-0.6-0.2-0.8-0.4
	c-0.2-0.2-0.2-0.5-0.2-0.9c0.1-0.8,0.4-1.5,1.1-2.2c0.6-0.6,1.3-0.9,1.9-0.9c0.3,0,0.6,0.2,0.8,0.4c0.2,0.2,0.3,0.5,0.3,0.7
	s-0.1,0.4-0.2,0.6l-1.1,2.1C-535.7,1098.8-536.1,1099.1-536.6,1099.1z M-535.4,1094.8c-0.5,0-1.1,0.3-1.6,0.8
	c-0.6,0.6-0.9,1.3-1,2.1c0,0.3,0,0.6,0.1,0.7c0.1,0.2,0.3,0.3,0.6,0.3h0.4c0.5,0.1,0.8-0.1,1-0.5l1.1-2.1c0.1-0.2,0.2-0.4,0.2-0.6
	c0-0.2,0-0.4-0.2-0.5C-535,1094.8-535.2,1094.8-535.4,1094.8C-535.3,1094.8-535.4,1094.8-535.4,1094.8z M-493.5,1097.9
	c-0.6,0-1.1-0.1-1.6-0.4c-0.8-0.4-1.4-1.3-1.7-2.4c-0.4-1.5-0.2-2.9,0.5-4.3c0.7-1.4,1.8-2.2,3.2-2.6c1-0.3,1.9-0.2,2.7,0.1
	c0.8,0.4,1.3,1,1.5,1.9c0.3,1.1,0.1,2-0.7,2.7c-0.4,0.4-1.1,0.8-2,1l-2.2,0.6c0.1,0.2,0.3,0.6,1.4,0.3l3.4-0.9
	c0.7-0.2,1.2-0.1,1.6,0.2c0-0.3-0.1-0.6-0.1-1l0.3-13c0-1,0.4-1.7,1.2-2c0.3-0.1,0.7-0.1,1,0c0.3,0.1,0.5,0.4,0.7,0.7
	c0.1,0.2,0.1,0.5,0.1,0.9v0.3l-0.2,12.1l1-0.4c0.5-0.2,0.9-0.2,1.2-0.2c0.3,0.1,0.6,0.3,0.7,0.7c0.2,0.5,0.2,0.9-0.1,1.3
	c-0.2,0.4-0.7,0.7-1.3,1l-2,0.8c-0.6,0.2-1.1,0.3-1.5,0.1c-0.3-0.1-0.5-0.2-0.7-0.5c0.1,0.4,0,0.8-0.3,1.1c-0.3,0.4-0.7,0.6-1.4,0.8
	l-3.2,0.9C-492.5,1097.9-493,1097.9-493.5,1097.9z M-491.8,1088.3c-0.4,0-0.8,0.1-1.2,0.2c-1.3,0.4-2.4,1.2-3.1,2.5
	c-0.7,1.3-0.8,2.7-0.5,4.1c0.3,1.1,0.8,1.9,1.6,2.3c0.8,0.4,1.7,0.5,2.9,0.1l3.2-0.9c0.6-0.2,1-0.4,1.3-0.7c0.3-0.3,0.3-0.7,0.2-1.1
	c-0.2-0.6-0.7-0.8-1.6-0.6l-3.4,0.9c-0.9,0.2-1.5,0.1-1.7-0.6v-0.1l2.4-0.6c0.9-0.2,1.5-0.6,1.9-1c0.7-0.7,0.9-1.5,0.6-2.5
	c-0.2-0.8-0.7-1.4-1.4-1.8C-490.9,1088.4-491.3,1088.3-491.8,1088.3z M-485.5,1078.3c-0.1,0-0.3,0-0.4,0.1c-0.7,0.3-1.1,0.8-1.1,1.8
	v0.3l-0.2,12.7c0,0.7,0.1,1.1,0.1,1.2c0.2,0.4,0.4,0.7,0.8,0.8c0.4,0.1,0.8,0.1,1.4-0.1l2-0.8c0.6-0.2,1-0.5,1.2-0.9
	c0.2-0.3,0.2-0.7,0.1-1.1c-0.1-0.3-0.3-0.5-0.6-0.5c-0.3-0.1-0.6,0-1.1,0.2l-1.3,0.5v-0.2l0.2-12.6c0-0.3,0-0.6-0.1-0.8
	c-0.1-0.3-0.3-0.4-0.5-0.6C-485.2,1078.3-485.4,1078.3-485.5,1078.3z M-544.2,1094.8c-0.2,0-0.4,0-0.7-0.1l-1.4-0.3l0.1-0.1
	c0.6-0.7,1.3-1,2-0.8c0.7,0.2,0.8,0.6,0.8,0.9c0,0.1-0.1,0.3-0.2,0.3C-543.8,1094.8-544,1094.8-544.2,1094.8z M-546,1094.3l1.1,0.2
	c0.7,0.1,1,0.1,1.1,0c0.1,0,0.1-0.1,0.1-0.2c0-0.2,0-0.5-0.6-0.7C-544.9,1093.6-545.5,1093.8-546,1094.3z M-480,1093.1
	c-0.2,0-0.3,0-0.5-0.1c-0.5-0.1-0.8-0.4-1-0.9c-0.1-0.2-0.2-0.7-0.2-1.3l-0.4-13c0-1,0.3-1.7,1.1-2c0.3-0.1,0.7-0.2,1,0
	c0.3,0.1,0.6,0.3,0.7,0.6c0.1,0.2,0.2,0.5,0.2,0.8v0.3l0.4,12.1l1-0.4c1-0.4,1.6-0.3,1.9,0.4c0.2,0.5,0.2,0.9,0,1.3
	c-0.2,0.4-0.6,0.8-1.2,1l-1.9,0.9C-479.4,1092.9-479.7,1093.1-480,1093.1z M-480.4,1075.8c-0.2,0-0.3,0-0.5,0.1
	c-0.7,0.3-1,0.9-1,1.8v0.3l0.4,12.7c0,0.7,0.1,1.1,0.2,1.2c0.2,0.4,0.5,0.6,0.8,0.7c0.4,0.1,0.9,0,1.4-0.2l1.9-0.9
	c0.6-0.2,0.9-0.6,1.1-0.9c0.2-0.4,0.2-0.7,0-1.1c-0.3-0.6-0.8-0.7-1.7-0.3l-1.3,0.6v-0.2l-0.4-12.6c0-0.3-0.1-0.6-0.2-0.8
	c-0.1-0.3-0.3-0.4-0.6-0.5C-480.2,1075.8-480.3,1075.8-480.4,1075.8z M-494,1092.4v-0.2c0.2-0.9,0.7-1.5,1.4-1.7
	c0.7-0.2,1,0.1,1.1,0.5c0,0.1,0,0.3,0,0.4c-0.1,0.2-0.5,0.4-1.1,0.6L-494,1092.4z M-492.2,1090.8c-0.1,0-0.2,0-0.3,0
	c-0.6,0.2-1,0.6-1.2,1.3l1.1-0.3c0.7-0.2,0.9-0.4,1-0.5c0-0.1,0-0.1,0-0.2C-491.7,1091.1-491.8,1090.8-492.2,1090.8z M-515.7,1091.2
	L-515.7,1091.2c0-0.8,0.3-1.5,1-2.1c0.7-0.6,1.5-0.9,2.3-1c0.6,0,1,0,1.4,0.3c0.4,0.2,0.6,0.5,0.6,0.9c0,0.5-0.2,0.9-0.6,1.2
	c-0.4,0.3-1,0.4-1.8,0.5L-515.7,1091.2z M-512,1088.2c-0.1,0-0.2,0-0.2,0c-0.8,0.1-1.6,0.4-2.2,0.9c-0.6,0.5-0.9,1.1-1,1.7l2.7-0.2
	c0.8-0.1,1.4-0.2,1.7-0.5c0.4-0.2,0.5-0.6,0.5-1c0-0.3-0.2-0.6-0.5-0.8C-511.3,1088.3-511.6,1088.2-512,1088.2z M-552.8,1089.6
	c-0.4,0-0.9-0.1-1.5-0.3l-0.5-0.1l0.1-0.1l3.3-3.6l0.3,0.1c1,0.4,1.4,1.1,1,2.2c-0.3,0.9-1,1.5-2.1,1.8
	C-552.4,1089.6-552.6,1089.6-552.8,1089.6z M-554.5,1089.1h0.2c0.8,0.2,1.5,0.3,2,0.2c1-0.2,1.6-0.8,1.9-1.6c0.4-1,0.1-1.6-0.8-1.9
	l-0.2-0.1L-554.5,1089.1z"/>
</svg>
