<?xml version="1.0" encoding="utf-8"?>
<!-- Generator: Adobe Illustrator 19.1.0, SVG Export Plug-In . SVG Version: 6.00 Build 0)  -->
<svg version="1.1" id="Layer_1" xmlns="http://www.w3.org/2000/svg" xmlns:xlink="http://www.w3.org/1999/xlink" x="0px" y="0px"
	 viewBox="0 0 183 230" style="enable-background:new 0 0 183 230;" xml:space="preserve">
<style type="text/css">
	.st0{fill-rule:evenodd;clip-rule:evenodd;fill:#FFFFFF;}
	.st1{fill:#1A1A18;}
	.st2{fill-rule:evenodd;clip-rule:evenodd;fill:#1A1A18;}
	.st3{fill-rule:evenodd;clip-rule:evenodd;fill:#C3181C;}
	.st4{fill-rule:evenodd;clip-rule:evenodd;fill:#972524;}
	.st5{fill-rule:evenodd;clip-rule:evenodd;fill:#E2000F;}
	.st6{fill:#C61829;}
	.st7{fill:#E2000F;}
</style>
<path class="st0" d="M72.9,45.9c-5.2-18.8,1.1-19.6,20-21.3c19.4,0.8,24.3,3.4,18.1,21.9c-2.8,3.8-7.6-1.8-18.8-1.5
	C81,45.3,74.8,50.6,72.9,45.9z M174.2,38.7l-19.9,19.6l-10.1-8l6,12L139.9,71l-5.8-6.5c2.3-4.7,4.3-9.9,5.9-15.5
	c7.2-24.7-1.2-48.4-47.2-48c-46,0.4-57.4,23.7-47.2,48.4c2.1,5,4.2,9.8,6.4,14.2c-3,2.7-5.8,5.7-8.2,9l-9.4-8l6.4-11.3l-10.1,7.9
	L9.8,41.6l-8.4,9.7l23,18.2c-14,17.1-23.8,40.2-17,62.7l15.4-6.6c-2.7-20.5-3.3-37.6,6.1-53.1l10.4,7.1c-4.1,7.8-6.5,16.6-6.5,26
	c0,31.6,26.7,57.3,59.7,57.3c33,0,59.7-25.7,59.7-57.3c0-10.3-2.8-20-7.8-28.4l10.9-7.2c10.2,15.2,15.8,34.1,7.7,55.5l17.2,6
	c4.8-27.6-9.8-49.1-21.1-65l23.4-16.9L174.2,38.7z"/>
<path class="st1" d="M92.6,164c-33.5,0-60.7-26.2-60.7-58.3c0-9,2.1-17.6,6.2-25.7l-8.8-6c-8.2,14.3-8.2,29.8-5.4,51.5l0.1,0.7
	l-17.1,7.3l-0.3-1.1C0.6,112.9,6.7,90,23.1,69.7L0,51.4l9.8-11.3l21,19.7l13.4-10.5l-8.5,15l8,6.8c2.1-2.8,4.5-5.4,7.1-7.7
	c-2-3.8-3.9-8.2-6.1-13.6c-5-12.2-4.6-23.6,1.1-32.1C53.3,6.3,69.6,0.2,92.8,0c21.8-0.2,36.7,4.9,44.5,15.2c6,8,7.5,18.9,4.3,31.7
	l12.6,10l20.1-19.8l9.7,12.6l-23.5,16.9c10.4,14.7,25.6,36.6,20.7,65l-0.2,1.2l-19.3-6.7l0.4-1c6.8-18,4.4-36.1-7.1-53.7l-9.3,6.1
	c4.9,8.6,7.5,18.2,7.5,28.1C153.3,137.8,126.1,164,92.6,164z M28.6,71.1l12.1,8.2l-0.4,0.8c-4.2,7.9-6.4,16.5-6.4,25.5
	c0,31,26.3,56.3,58.7,56.3c32.4,0,58.7-25.3,58.7-56.3c0-9.8-2.7-19.4-7.7-27.9l-0.5-0.8l12.5-8.3l0.6,0.8
	c12.1,18.1,14.9,36.8,8.2,55.4l15.1,5.3c4.2-27.5-11-48.9-21.1-63.1l-0.6-0.8l23.4-16.9l-7.1-9.2l-19.7,19.5l-7.2-5.7l4.3,8.6
	l-11.6,9.8l-6.9-7.7l0.3-0.6c2.2-4.5,4.2-9.7,5.8-15.3c2.7-9.2,4.3-22.3-3.3-32.3C128.3,6.7,113.9,1.8,92.8,2
	C70.3,2.2,54.6,8,47.4,18.8c-5.4,8.1-5.7,18.6-0.9,30.3c2.3,5.7,4.4,10.1,6.4,14.1l0.4,0.7l-0.6,0.5c-3,2.7-5.7,5.6-8.1,8.8L44,74
	l-10.9-9.3l4.3-7.6l-6.8,5.3L9.9,43l-7,8.1l23,18.2l-0.6,0.8C9.1,89.8,2.9,111.9,8.1,130.8l13.6-5.8c-2.8-22.2-2.7-38.1,6.3-53
	L28.6,71.1z M135.3,64.3l4.7,5.3L149,62l-7.4-14.9c-0.2,0.7-0.4,1.4-0.6,2.1C139.4,54.8,137.5,59.9,135.3,64.3z M75.8,48.8
	c-1.7,0-3.1-0.6-3.9-2.6l0-0.1c-2.3-8.4-2.4-13.3-0.1-16.5c3.1-4.4,10.2-5.1,21-6l0.1,0l0.1,0c10.8,0.4,17.2,1.5,20,5.5
	c2.3,3.4,2,8.5-1.1,17.7l-0.1,0.3c-1.9,2.6-4.5,1.8-7.9,0.8c-2.9-0.9-6.6-2-11.7-1.8c-4.5,0.1-8.2,1.1-11.1,1.8
	C79.1,48.4,77.3,48.8,75.8,48.8z M73.8,45.6c0.7,1.7,2,1.6,6.7,0.4c3-0.8,6.8-1.8,11.5-1.9c5.4-0.2,9.4,1,12.3,1.9
	c3.4,1,4.6,1.3,5.6,0.1c2.8-8.3,3.2-13,1.3-15.8c-2.3-3.4-8.5-4.3-18.4-4.7c-10.2,0.9-16.9,1.5-19.5,5.2
	C71.6,33.4,71.7,37.9,73.8,45.6z"/>
<path class="st2" d="M71.2,49.3C59.4,27.6,71.8,21,93.4,21.6c22.5-0.7,30.9,9.5,20.5,28.7c-2.5,3.6-11.2-1.7-21.5-1.4
	C82.1,49.1,72.9,53.8,71.2,49.3z M93,4.5c48.3,0.3,47.5,31.1,43.5,45.6c-4.1,14.5-3.4,10-5.5,14.5c8,10.8,15.8,15.7,16.8,39.8
	c1,24.1-20.8,55.6-55,55c-34.1-0.7-56.8-31.1-55-55c1.9-23.8,10.3-29.6,18.3-40.3c-2.1-4.2-0.9,0.7-6.6-13.6
	C43.9,36.2,44.7,4.3,93,4.5z"/>
<path class="st1" d="M93.8,159.7c-0.4,0-0.7,0-1.1,0c-15.8-0.3-30.4-7-41.2-19c-9.7-10.7-14.9-24.3-14-36.3
	c1.5-19.7,7.7-27.3,14.2-35.2c1.3-1.6,2.7-3.3,4.1-5.1c-0.6-1.2-0.9-1.6-1.2-2c-0.7-0.9-1.4-1.8-5.3-11.5
	c-3.1-7.8-4.2-20.5,2.8-30.7C59.2,9.5,72.7,4.2,92.4,4.2c0.2,0,0.4,0,0.6,0c19.1,0.1,32.4,5,39.6,14.5c8.5,11.3,5.8,25.8,4.2,31.5
	c-2.9,10.4-3.4,11.1-4.2,12.2c-0.3,0.5-0.7,1-1.2,2.1c1.3,1.8,2.7,3.4,3.9,5c6.4,7.9,12,14.7,12.8,34.8c0.6,13.2-5.7,28.2-16.3,39
	C121.5,153.9,108.1,159.7,93.8,159.7z M92.4,4.8c-19.5,0-32.9,5.2-39.9,15.4c-6.8,10-5.7,22.5-2.7,30.1c3.8,9.7,4.5,10.5,5.2,11.4
	c0.3,0.4,0.7,0.8,1.4,2.2l0.1,0.2l-0.1,0.1c-1.4,1.9-2.8,3.6-4.2,5.3c-6.4,7.9-12.5,15.3-14,34.9c-0.9,11.9,4.3,25.3,13.9,35.9
	c10.7,11.8,25.2,18.5,40.8,18.8c14.4,0.3,28.1-5.4,38.5-16.1c10.5-10.7,16.7-25.5,16.1-38.6c-0.8-19.9-6.3-26.7-12.7-34.5
	c-1.3-1.6-2.7-3.3-4.1-5.2l-0.1-0.1l0.1-0.2c0.6-1.3,1-1.9,1.4-2.4c0.8-1.1,1.3-1.8,4.1-12.1c1.6-5.6,4.3-19.9-4.1-31
	C125,9.7,111.9,4.9,93,4.8C92.8,4.8,92.6,4.8,92.4,4.8z M110.8,51.8c-1.6,0-3.7-0.5-6.2-1c-3.4-0.8-7.7-1.8-12.2-1.6
	c-3.8,0.1-7.4,0.8-10.6,1.5c-5.4,1.1-9.6,1.9-10.8-1.2c-4.8-8.9-5.8-15.8-3-20.5c3.3-5.4,11.9-8,25.4-7.6c11.9-0.4,20,2.3,23.3,7.8
	c3.1,5.1,2.2,12.2-2.6,21.2C113.4,51.4,112.2,51.8,110.8,51.8z M93.2,48.5c4.3,0,8.3,0.9,11.6,1.7c4.4,1,7.6,1.7,8.9-0.1
	c4.8-8.8,5.7-15.7,2.6-20.7c-3.3-5.3-11.2-7.9-22.9-7.6c-13.4-0.4-21.8,2.1-25,7.3c-2.8,4.5-1.8,11.2,3,19.9l0,0
	c1,2.7,4.9,1.9,10.2,0.8c3.2-0.6,6.9-1.4,10.7-1.5C92.6,48.5,92.9,48.5,93.2,48.5z"/>
<path class="st3" d="M93.1,55.6c27.4,0,49.7,22.3,49.7,49.7c0,27.4-22.3,49.7-49.7,49.7s-49.7-22.3-49.7-49.7
	C43.4,77.9,65.6,55.6,93.1,55.6"/>
<path class="st0" d="M51.1,95.1c37.1,8,71.9,15,84.7,11.5c-0.9,7-2.8,13.2-6.2,18.2c-13.2-19.9-37.9-12.6-65.8,4.4
	c-4.4-3.6-7.4-7.9-8.7-13.1c6.1-3,13.2-5.5,21.3-7.5c-9.1-0.4-17.2-0.3-24.3,0.3C50.7,104.5,50.4,99.9,51.1,95.1"/>
<path class="st2" d="M51,95c29.6,5.5,59.6,10.4,85.1,11.4C117.3,112.2,85,103.3,51,95z"/>
<path class="st1" d="M121.6,108.5c-17.1,0-39.6-5.6-63.1-11.3c-2.5-0.6-5.1-1.3-7.6-1.9l0.1-0.6c27.2,5.1,58.5,10.4,85.1,11.4
	l1.7,0.1l-1.6,0.5C132,107.9,127,108.5,121.6,108.5z M60.3,97c29.3,7.2,56.8,13.9,74,9.6C111.1,105.6,84.5,101.4,60.3,97z"/>
<path class="st2" d="M82.9,125.6c16.9-10.1,29.5-14.2,38.3-2.1C108.6,116,102,119.4,82.9,125.6z"/>
<path class="st1" d="M80.6,126.6l2.1-1.3c9.7-5.8,16.6-8.7,22.3-9.4c6.8-0.8,12.2,1.6,16.4,7.4l0.8,1.1l-1.2-0.7
	c-11.3-6.7-17.6-4.6-32.8,0.4c-1.6,0.5-3.4,1.1-5.2,1.7L80.6,126.6z M107.6,116.3c-6.3,0-13.7,3.2-22.4,8.3c1-0.3,1.9-0.6,2.8-0.9
	c14.9-4.9,21.3-7,32.1-1.1C116.5,118.2,112.4,116.3,107.6,116.3z"/>
<path class="st0" d="M105.4,88.3C96.5,99.8,63.1,94.4,69.7,68L105.4,88.3z"/>
<path class="st0" d="M116.9,88.8c4.4,9.4,14.4,3.9,15.5-8.7C127.1,82.1,121.1,85.3,116.9,88.8"/>
<path class="st2" d="M67.3,66.8C84.4,76.4,103,87.2,111.7,93c6.7-5.9,14.5-10.3,20.6-13c-6,1.2-12.6,3.5-18.6,6.6
	c-0.6-11.1-3.9-19.3-8.4-25.2c3,7.5,5.7,16.8,4.8,25.5C106.3,83.5,81,71.9,67.3,66.8z"/>
<path class="st1" d="M111.7,93.4l-0.2-0.1c-10-6.7-32.1-19.3-44.4-26.2L64,65.2l3.4,1.3c13.2,4.9,37.5,16.1,42.5,19.8
	c0.6-7-1-15.2-4.8-24.9l-0.8-2l1.3,1.7c5,6.6,7.8,15,8.4,24.9c5.7-2.9,12.2-5.2,18.3-6.4l2.5-0.5l-2.3,1c-4.4,2-13,6.3-20.5,13
	L111.7,93.4z M70.9,68.4c12.5,7.1,31.6,18,40.8,24.2c6.4-5.6,13.5-9.5,18.2-11.8c-5.4,1.3-11,3.4-16,6l-0.4,0.2l0-0.4
	c-0.5-9.1-2.8-16.9-7-23.2c3.4,9.1,4.7,16.8,4,23.5l-0.1,0.5l-0.4-0.4C106.4,84.1,84.9,74,70.9,68.4z"/>
<path class="st2" d="M99.5,84.5C89.2,92,79.7,84.6,73.3,72.9l9.7,5.1l-5.7-5.7L99.5,84.5z"/>
<path class="st2" d="M119.4,86.7c4.2,5.3,6.8,0,11.2-4.8l-3,1.8l0.6-2.1L119.4,86.7z"/>
<path class="st1" d="M122.8,89.2C122.8,89.2,122.8,89.2,122.8,89.2c-1.2,0-2.4-0.8-3.6-2.3l-0.2-0.3l9.6-5.6L128,83l4.1-2.4
	l-1.3,1.4c-0.7,0.8-1.4,1.7-2.1,2.5C126.6,87,124.8,89.2,122.8,89.2z M119.8,86.7c1,1.2,2,1.8,2.9,1.9c0,0,0,0,0,0
	c1.8,0,3.5-2.1,5.5-4.5c0.3-0.4,0.6-0.8,1-1.2l-2.1,1.3l0.6-2.1L119.8,86.7z"/>
<path class="st4" d="M51.3,78.4c-11.5,46.8,26.2,93.9,83.3,54.4C97.3,185.5,15.8,135.5,51.3,78.4"/>
<path class="st0" d="M110.1,51c12.1,4.6,21.5-1.6,29.2-11.2l-0.3-6.4c-8.5,10.6-22.1,18.5-26.1,12.3L110.1,51z"/>
<path class="st0" d="M73.9,50.7C54.7,48.7,50,31.7,47.5,19c1.2-0.6,4.8-4.3,4.1-3.2c-2.8,4.5,12.3,33.9,20.4,29.7L73.9,50.7z"/>
<path class="st5" d="M18.1,124.6l-6.9,3C3.5,104.7,22.1,70.8,36,59C18.6,79.3,9.8,102.2,18.1,124.6 M176.7,126.7l-8.7-2.4
	c7.9-31.3-6.8-49.6-19.8-69.1C166.4,76.1,181.1,105.1,176.7,126.7z"/>
<polygon class="st2" points="9.7,45.8 41.3,74.6 40,76.3 6,50.1 "/>
<path class="st1" d="M40,76.7L5.6,50.2l4-4.8l32,29.2L40,76.7z M6.5,50.1l33.4,25.9l1-1.3L9.7,46.2L6.5,50.1z"/>
<polygon class="st2" points="175,43.5 142.3,72 144.4,74.5 178.6,47.8 "/>
<path class="st1" d="M144.3,74.9L142,72l33-28.9l4,4.8L144.3,74.9z M142.7,72l1.7,2.1l33.8-26.3l-3.2-3.9L142.7,72z"/>
<path class="st1" d="M170.5,161.4L155,153l-3.3,5.8l-7.8-4.2l11.6-20.4l7.8,4.2l-3.3,5.8l15.5,8.4L170.5,161.4z M156.8,178.2
	l-19.1-18.1l7.1-7.2l19.1,18.1L156.8,178.2z M134.6,194.4l-14.1-22l18.5-11.3l4.5,7l-9.8,6l1.6,2.5l9.8-6l3.9,6.2l-9.8,6l4.1,6.3
	L134.6,194.4z M106.4,202.8l-1.6-6.4c1.7-0.2,3.3-0.3,4.8-0.6c1.5-0.2,2.8-0.5,3.9-0.8c1.3-0.3,2.1-0.6,2.5-1
	c0.4-0.3,0.5-0.8,0.4-1.4c-0.3-1-1.5-1.3-3.8-0.8c-1,0.2-1.8,0.4-2.3,0.5c-1.5,0.3-2.6,0.4-3.4,0.3c-0.8-0.1-1.5-0.3-2.1-0.7
	c-0.8-0.5-1.4-1.2-2-2.1c-0.6-0.9-1-2.1-1.4-3.5c-0.8-3.2-0.5-5.6,0.8-7.4c1.3-1.8,4-3.1,7.9-4.1c1.3-0.3,2.8-0.6,4.6-0.9
	c1.7-0.3,3.8-0.5,6.1-0.8l2,7.7c-1.6,0.2-2.9,0.3-4.1,0.5c-1.1,0.2-2.2,0.4-3.1,0.6c-2,0.5-3.3,0.9-3.8,1.3
	c-0.5,0.4-0.7,0.9-0.5,1.6c0.1,0.5,0.4,0.8,0.9,1c0.5,0.1,1.2,0.1,2.2-0.2l1.4-0.3c3.3-0.8,5.6-0.8,7.1-0.1c1.5,0.8,2.6,2.5,3.3,5.2
	c0.7,2.9,0.5,5.2-0.8,6.9c-1.3,1.7-3.8,3-7.5,3.9c-1.4,0.3-3,0.6-4.9,0.9C110.8,202.4,108.7,202.6,106.4,202.8z M79.6,203l0.2-6.6
	c1.7,0.3,3.3,0.6,4.8,0.7c1.5,0.2,2.8,0.3,4,0.3c1.3,0,2.2,0,2.7-0.3c0.5-0.2,0.7-0.6,0.8-1.3c0-1.1-1.1-1.7-3.4-1.8
	c-1,0-1.8-0.1-2.4-0.1c-1.5-0.1-2.6-0.4-3.4-0.6c-0.7-0.3-1.4-0.7-1.9-1.3c-0.6-0.7-1-1.5-1.3-2.6c-0.3-1.1-0.4-2.3-0.4-3.7
	c0.1-3.3,1.1-5.6,2.8-6.9c1.8-1.3,4.7-1.9,8.8-1.8c1.4,0,2.9,0.2,4.6,0.4c1.7,0.2,3.8,0.5,6.1,0.9l-0.3,7.9c-1.5-0.3-2.9-0.5-4-0.6
	c-1.2-0.1-2.2-0.2-3.1-0.3c-2.1-0.1-3.4,0-4.1,0.2c-0.6,0.2-0.9,0.7-1,1.4c0,0.5,0.2,0.9,0.6,1.2c0.4,0.2,1.2,0.4,2.2,0.4l1.4,0
	c3.4,0.1,5.6,0.7,6.9,1.9s1.8,3.1,1.7,5.9c-0.1,3-1,5.1-2.8,6.4c-1.7,1.3-4.5,1.8-8.3,1.7c-1.4,0-3.1-0.2-5-0.4
	C84,203.8,81.9,203.5,79.6,203z M61.2,199.3c-4.5-1.6-7.3-3.8-8.5-6.8c-1.2-2.9-0.9-6.8,0.9-11.7c1.6-4.2,3.7-6.9,6.5-8.1
	c2.8-1.2,6.4-1,10.8,0.6c4.4,1.6,7.3,3.7,8.7,6.4c1.3,2.7,1.2,6.1-0.3,10.2c-1.8,4.8-4.1,8-7,9.5C69.4,200.9,65.7,200.9,61.2,199.3z
	 M64,191.8c1.2,0.4,2.3,0.3,3.3-0.3c1-0.7,1.8-1.9,2.4-3.6c0.6-1.6,0.7-2.8,0.4-3.8c-0.3-1-1.1-1.7-2.4-2.2
	c-1.2-0.4-2.3-0.4-3.2,0.2c-0.9,0.6-1.7,1.6-2.2,3.1c-0.7,1.8-0.9,3.2-0.6,4.4C62,190.6,62.8,191.3,64,191.8z M23.3,173.1l18.1-19
	l13,11.8c2.2,2,3.5,3.9,3.7,5.7c0.2,1.8-0.6,3.6-2.3,5.4c-1.7,1.8-3.5,2.8-5.3,2.9c-1.8,0.1-3.6-0.5-5.4-2l-1.5,13.6l-8.6-7.8l1.3-7
	c0.1-0.7,0.3-1.4,0.5-2.1c0.2-0.7,0.4-1.4,0.7-2l-0.2-0.2c-0.4,0.5-0.8,1-1.2,1.5c-0.5,0.5-1.1,1.2-2,2.2l-3.4,3.6L23.3,173.1z
	 M40.3,169.7l1.5,1.4c1.2,1.1,2.1,1.6,2.9,1.7c0.8,0.1,1.5-0.2,2.2-1c0.6-0.6,0.8-1.3,0.7-1.9c-0.2-0.6-0.8-1.5-2-2.5l-1.7-1.6
	L40.3,169.7z M18.9,165.3c-1.4-1.4-2.6-2.8-3.7-4.1c-1.1-1.4-2-2.7-2.7-4.1c-2-3.6-2.4-6.8-1.2-9.7c1.2-2.8,3.9-5.4,8.3-7.7
	c4.2-2.2,7.7-2.9,10.5-2.1c2.8,0.8,5.3,3.1,7.4,7c0.8,1.4,1.4,2.9,2,4.5c0.6,1.6,1,3.2,1.4,4.8l-8,4.2c-0.5-1.4-1-2.5-1.4-3.6
	c-0.4-1-0.9-1.9-1.2-2.6c-0.9-1.7-1.9-2.7-2.8-3.1c-1-0.4-2.1-0.2-3.6,0.5c-1.5,0.8-2.3,1.7-2.6,2.7c-0.3,1.1,0,2.4,0.9,4
	c0.5,0.9,1,1.7,1.7,2.6c0.7,0.9,1.5,1.9,2.4,2.8L18.9,165.3z"/>
<path class="st6" d="M138.2,211.5l1.1-0.5c0.9-0.4,1.5-0.3,1.8,0.4c0.2,0.4,0.2,0.9,0,1.2c-0.2,0.4-0.6,0.7-1.2,1l-1.9,0.9
	c-0.5,0.2-1,0.3-1.4,0.2c-0.4-0.1-0.7-0.4-0.9-0.8c-0.1-0.2-0.2-0.6-0.2-1.3l-0.4-12.7l0-0.3c0-1,0.3-1.6,1-1.9
	c0.3-0.1,0.6-0.1,0.9,0c0.3,0.1,0.5,0.3,0.6,0.6c0.1,0.2,0.2,0.5,0.2,0.8l0,0.3L138.2,211.5z M132.4,214.1l1.2-0.4
	c0.9-0.4,1.5-0.2,1.8,0.4c0.2,0.4,0.1,0.9-0.1,1.2c-0.2,0.4-0.6,0.7-1.2,0.9l-2,0.8c-0.5,0.2-1,0.2-1.4,0.1
	c-0.4-0.1-0.7-0.4-0.9-0.9c-0.1-0.2-0.1-0.6-0.1-1.3l0.2-12.7l0-0.3c0-1,0.4-1.6,1.1-1.9c0.3-0.1,0.6-0.1,0.9,0
	c0.3,0.1,0.5,0.3,0.6,0.6c0.1,0.2,0.1,0.5,0.1,0.8l0,0.3L132.4,214.1z M123.1,214.1l1.3-0.3c0.8-0.2,1.2-0.5,1-0.9
	c-0.1-0.4-0.4-0.5-1-0.4C123.8,212.7,123.3,213.2,123.1,214.1z M123.1,216.3c0.2,0.6,0.7,0.7,1.5,0.5l3.4-0.9c1-0.3,1.5,0,1.7,0.6
	c0.1,0.5,0.1,0.9-0.2,1.2c-0.3,0.4-0.7,0.6-1.3,0.8l-3.2,0.9c-1.2,0.3-2.2,0.3-3-0.2c-0.8-0.4-1.3-1.2-1.6-2.4
	c-0.4-1.5-0.2-2.9,0.5-4.2c0.7-1.3,1.8-2.2,3.1-2.6c1-0.3,1.9-0.2,2.6,0.1c0.7,0.4,1.2,1,1.5,1.8c0.3,1,0.1,1.9-0.6,2.6
	c-0.4,0.4-1,0.7-2,1L123.1,216.3z M113.7,213.6c0.7-0.6,1.4-0.9,1.9-1c0.8-0.1,1.4,0,1.9,0.3c0.5,0.3,0.9,0.8,1,1.5
	c0.1,0.4,0,0.8-0.1,1.3l-0.7,3.3l1.3-0.2c1-0.2,1.5,0.1,1.6,0.8c0.1,0.5,0,0.9-0.3,1.2c-0.3,0.3-0.8,0.5-1.4,0.6l-2.4,0.4
	c-0.5,0.1-0.9,0-1.3-0.2c-0.4-0.2-0.6-0.6-0.7-1c0-0.3,0-0.7,0.1-1.1l0.7-2.8c0.1-0.4,0.1-0.6,0.1-0.8c-0.1-0.4-0.4-0.6-1-0.5
	c-0.8,0.1-1.4,0.9-1.7,2.4l-0.8,3.4c-0.3,1.1-0.8,1.7-1.6,1.8c-0.3,0.1-0.6,0-0.9-0.2c-0.3-0.2-0.4-0.4-0.5-0.7c0-0.2,0-0.5,0.1-0.8
	l0.1-0.3l3.1-13.4c0.3-1.1,0.8-1.8,1.6-1.9c0.3-0.1,0.6,0,0.9,0.2c0.3,0.2,0.4,0.4,0.5,0.7c0,0.3,0,0.6-0.1,1.2L113.7,213.6z
	 M101.4,212.7l2.8-0.2c1.6-0.1,2.4-0.6,2.3-1.6c0-0.4-0.2-0.6-0.6-0.8c-0.3-0.2-0.8-0.3-1.3-0.2c-0.9,0.1-1.6,0.4-2.3,1
	C101.8,211.4,101.4,212.1,101.4,212.7z M103.1,215.5l1.2,1.3l0.7,0.7c1.3,1.4,2,3,2.2,4.6c0.1,1.6-0.3,3.1-1.3,4.4
	c-1.3,1.8-3.2,2.8-5.6,2.9c-1.8,0.1-3.4-0.3-4.6-1.4c-1.3-1.1-1.9-2.5-2.1-4.2c-0.2-2.2,0.6-4,2.4-5.6c0.9-0.8,1.8-1.3,2.6-1.3
	c0.4,0,0.8,0.1,1.1,0.3c0.3,0.2,0.4,0.5,0.5,0.9c0,0.5-0.2,1-0.8,1.4l-0.9,0.6c-0.5,0.4-0.9,0.9-1.3,1.5c-0.3,0.6-0.5,1.2-0.4,1.8
	c0.1,0.9,0.4,1.7,1.1,2.3c0.7,0.6,1.5,0.8,2.5,0.7c1.1-0.1,2-0.5,2.7-1.4c0.7-0.9,1.1-1.8,1-2.9c0-0.7-0.3-1.3-0.6-1.9
	c-0.4-0.5-1.1-1.4-2.3-2.5c-0.8-0.8-1.4-1.5-1.8-2.1l-3.2,0.2c-1.1,0.1-1.7-0.3-1.7-1c0-0.5,0.1-1,0.5-1.3c0.4-0.3,0.9-0.5,1.6-0.6
	l2-0.1c0-1.6,0.7-2.9,1.9-4c1.2-1.1,2.7-1.7,4.5-1.8c1.3-0.1,2.4,0.2,3.3,0.9c0.9,0.7,1.4,1.6,1.5,2.8c0.1,1.6-0.5,2.8-1.7,3.7
	c-0.7,0.5-1.9,0.8-3.6,1L103.1,215.5z M79.8,220.6l0.4,0c0.5,0.1,0.9-0.1,1.1-0.5l1.1-2.1c0.1-0.3,0.2-0.5,0.2-0.6
	c0-0.2-0.1-0.4-0.2-0.6c-0.2-0.2-0.4-0.3-0.7-0.3c-0.6-0.1-1.2,0.2-1.8,0.8c-0.6,0.6-0.9,1.3-1,2.1
	C78.8,220.2,79.1,220.6,79.8,220.6z M84.1,221l1.3,0.1c1,0.1,1.5,0.5,1.4,1.2c-0.1,0.5-0.3,0.8-0.6,1.1c-0.4,0.2-0.9,0.3-1.5,0.2
	l-1.6-0.2c-0.6-0.1-1-0.4-1.3-0.9c-0.6,0.4-1.1,0.6-1.7,0.6l-1.5-0.2c-0.9-0.1-1.5-0.5-2-1.1c-0.5-0.6-0.6-1.5-0.5-2.5
	c0.2-1.5,0.8-2.8,2-3.9c1.2-1.1,2.4-1.6,3.7-1.4c1,0.1,1.7,0.5,2.2,1.3l3.3-6.2c0.6-1.1,1.2-1.5,2-1.5c0.3,0,0.6,0.2,0.8,0.4
	c0.2,0.2,0.3,0.5,0.3,0.8c0,0.2-0.1,0.5-0.3,0.8l-0.2,0.3L84.1,221z M70.8,216.1l1.3,0.3c0.8,0.2,1.3,0.1,1.3-0.3
	c0.1-0.4-0.2-0.7-0.7-0.8C72,215.2,71.4,215.5,70.8,216.1z M69.8,218.1c-0.1,0.6,0.3,1,1.1,1.1l3.4,0.7c1,0.2,1.4,0.7,1.2,1.3
	c-0.1,0.5-0.3,0.8-0.7,1c-0.4,0.2-0.9,0.2-1.5,0.1l-3.3-0.7c-1.2-0.3-2.1-0.8-2.6-1.5c-0.5-0.7-0.6-1.7-0.4-2.8
	c0.3-1.5,1.1-2.7,2.3-3.5c1.2-0.9,2.6-1.2,3.9-0.9c1,0.2,1.8,0.7,2.3,1.3c0.5,0.7,0.7,1.4,0.5,2.3c-0.2,1-0.8,1.7-1.8,2
	c-0.5,0.2-1.3,0.2-2.2,0L69.8,218.1z M62.3,210.8l0.3,0.1c0.9,0.3,1.6,0.3,2.1,0.2c1-0.2,1.6-0.8,2-1.7c0.4-1,0.1-1.7-0.9-2.1
	l-0.2-0.1L62.3,210.8z M64.1,213.8l0.3,6.4c0,0.8,0.3,1.3,0.8,1.5l0.4,0.2l4.7,1.7c1,0.4,1.4,0.9,1.2,1.6c-0.2,0.5-0.5,0.8-1,1
	c-0.5,0.2-1,0.1-1.7-0.1l-5.1-1.9c-1.4-0.5-2.1-1.5-2.2-3.1l-0.4-8.9l-2.8,3.1c-1.4,1.5-2.3,2.5-2.8,3c-0.5,0.5-1.1,1-1.7,1.3
	c-2.1,1.4-4.2,1.7-6.4,0.9c-1.6-0.6-2.7-1.5-3.3-2.9c-0.6-1.3-0.6-2.8-0.1-4.4c0.8-2.1,2.2-3.6,4.3-4.6c1.1-0.5,2.4-0.8,3.8-0.9
	c1.4-0.1,2.7,0.1,4,0.6c0.6,0.2,1,0.5,1.3,0.9c0.3,0.4,0.3,0.8,0.2,1.2c-0.2,0.5-0.5,0.8-1,0.9c-0.3,0.1-0.8,0-1.4-0.1
	c-1.5-0.4-2.8-0.5-3.9-0.3c-0.9,0.2-1.7,0.6-2.4,1.1c-0.7,0.6-1.2,1.2-1.5,2c-0.3,0.8-0.3,1.6-0.1,2.2c0.3,0.6,0.7,1.1,1.5,1.4
	c0.9,0.3,1.8,0.2,2.8-0.3c0.9-0.5,2.2-1.6,3.7-3.3l7.3-8.1l-1.1-0.4c-1-0.4-1.4-0.9-1.1-1.6c0.2-0.5,0.5-0.8,1-1
	c0.5-0.1,1-0.1,1.7,0.1l3.7,1.3c1,0.4,1.6,0.7,2.1,0.9c0.4,0.3,0.8,0.7,1,1.2c0.6,1,0.7,2.2,0.2,3.5c-0.4,1.2-1.2,2.1-2.2,2.8
	C66.5,213.6,65.3,213.9,64.1,213.8z"/>
<path class="st7" d="M99.6,229.5c-1.6,0-3-0.5-4.1-1.4c-1.3-1.1-2-2.5-2.1-4.3c-0.2-2.2,0.7-4.1,2.4-5.7c0.9-0.8,1.8-1.3,2.7-1.4
	c0.5,0,0.8,0.1,1.1,0.3c0.3,0.2,0.5,0.6,0.5,1c0,0.6-0.3,1.1-0.9,1.5l-0.9,0.6c-0.5,0.4-0.9,0.9-1.2,1.5c-0.3,0.6-0.4,1.2-0.4,1.8
	c0.1,0.9,0.4,1.6,1.1,2.2c0.7,0.5,1.5,0.8,2.4,0.7c1-0.1,1.9-0.5,2.7-1.4c0.7-0.8,1-1.8,1-2.9c0-0.7-0.2-1.3-0.6-1.8
	c-0.4-0.5-1.1-1.4-2.3-2.5c-0.8-0.7-1.4-1.4-1.7-2l-3.1,0.2c-1.1,0.1-1.8-0.3-1.8-1.1c0-0.6,0.1-1,0.5-1.4c0.4-0.3,0.9-0.5,1.6-0.6
	l1.9-0.1c0.1-1.6,0.7-2.9,1.9-4c1.2-1.1,2.7-1.8,4.5-1.9c1.4-0.1,2.5,0.2,3.4,0.9c0.9,0.7,1.4,1.6,1.5,2.8c0.1,1.6-0.5,2.9-1.8,3.8
	c-0.7,0.5-1.9,0.9-3.6,1l-1,0.1l1,1.1l0.7,0.7c1.3,1.4,2.1,3,2.2,4.7c0.1,1.6-0.3,3.1-1.3,4.5c-1.4,1.8-3.3,2.8-5.7,3
	C100,229.5,99.8,229.5,99.6,229.5z M98.6,217c0,0-0.1,0-0.1,0c-0.8,0.1-1.6,0.5-2.5,1.3c-1.7,1.5-2.5,3.4-2.3,5.5
	c0.1,1.7,0.8,3.1,2,4.1c1.2,1,2.8,1.5,4.6,1.4c2.3-0.2,4.2-1.1,5.5-2.9c1-1.3,1.4-2.7,1.3-4.3c-0.1-1.6-0.8-3.2-2.1-4.6l-0.7-0.7
	l-1.3-1.5l1.4-0.1c1.6-0.1,2.8-0.4,3.5-0.9c1.2-0.9,1.8-2.1,1.7-3.6c-0.1-1.1-0.6-2-1.4-2.7c-0.9-0.7-2-0.9-3.3-0.8
	c-1.7,0.1-3.2,0.7-4.4,1.8c-1.2,1.1-1.8,2.4-1.8,3.9l0,0.1l-2.1,0.1c-0.7,0-1.2,0.2-1.5,0.5c-0.3,0.3-0.5,0.7-0.4,1.2
	c0,0.7,0.6,1,1.6,0.9l3.3-0.2l0,0.1c0.4,0.6,1,1.3,1.7,2c1.2,1.1,1.9,2,2.3,2.5c0.4,0.6,0.6,1.2,0.6,1.9c0.1,1.1-0.3,2.1-1,3
	c-0.8,0.9-1.7,1.4-2.8,1.4c-1,0.1-1.9-0.2-2.6-0.8c-0.7-0.6-1.1-1.4-1.2-2.3c0-0.6,0.1-1.2,0.4-1.9c0.3-0.6,0.8-1.2,1.3-1.5l0.9-0.6
	c0.6-0.4,0.8-0.8,0.8-1.3c0-0.4-0.2-0.6-0.4-0.8C99.2,217.1,98.9,217,98.6,217z M69.9,226.4c-0.3,0-0.7-0.1-1.1-0.2l-5.1-1.9
	c-1.4-0.5-2.2-1.6-2.3-3.2l-0.4-8.7l-2.6,2.9c-1.4,1.5-2.3,2.5-2.8,3c-0.5,0.5-1.1,1-1.7,1.4c-2.1,1.4-4.3,1.7-6.5,0.9
	c-1.6-0.6-2.7-1.6-3.3-2.9c-0.6-1.4-0.6-2.9-0.1-4.5c0.8-2.1,2.2-3.7,4.3-4.7c1.1-0.5,2.4-0.8,3.9-0.9c1.4-0.1,2.8,0.1,4,0.6
	c0.6,0.2,1,0.5,1.3,0.9c0.3,0.4,0.3,0.9,0.2,1.3c-0.2,0.5-0.5,0.8-1.1,1c-0.3,0.1-0.8,0-1.5-0.1c-1.5-0.4-2.8-0.5-3.9-0.3
	c-0.9,0.2-1.7,0.6-2.4,1.1c-0.7,0.6-1.2,1.2-1.5,2c-0.3,0.8-0.3,1.5-0.1,2.1c0.2,0.6,0.7,1,1.4,1.3c0.9,0.3,1.8,0.2,2.7-0.3
	c0.9-0.5,2.1-1.6,3.6-3.3l7.2-8l-1-0.4c-0.5-0.2-0.9-0.4-1.1-0.7c-0.2-0.3-0.2-0.6-0.1-1c0.2-0.5,0.5-0.9,1-1.1
	c0.5-0.2,1.1-0.1,1.7,0.1l3.7,1.3c1,0.4,1.7,0.7,2.1,1c0.4,0.3,0.8,0.7,1.1,1.2c0.6,1.1,0.7,2.3,0.2,3.6c-0.4,1.2-1.2,2.2-2.2,2.8
	c-1,0.7-2.2,0.9-3.4,0.9l0.3,6.3c0,0.8,0.3,1.3,0.7,1.4l0.4,0.1l4.7,1.7c1.1,0.4,1.5,1,1.2,1.7c-0.2,0.5-0.5,0.9-1,1.1
	C70.3,226.4,70.1,226.4,69.9,226.4z M61.2,212l0.4,9.2c0.1,1.5,0.8,2.5,2.1,3l5.1,1.9c0.6,0.2,1.2,0.3,1.6,0.1
	c0.4-0.1,0.7-0.4,0.9-0.9c0.2-0.6-0.1-1.1-1.1-1.5l-5.1-1.8c-0.5-0.2-0.8-0.7-0.9-1.6l-0.3-6.6l0.1,0c1.2,0.1,2.4-0.2,3.4-0.8
	c1-0.6,1.7-1.6,2.2-2.7c0.5-1.3,0.4-2.4-0.2-3.4c-0.3-0.5-0.6-0.9-1-1.1c-0.4-0.3-1.1-0.6-2-0.9l-3.7-1.3c-0.6-0.2-1.2-0.3-1.6-0.1
	c-0.4,0.1-0.7,0.4-0.9,0.9c-0.1,0.3-0.1,0.6,0.1,0.8c0.2,0.2,0.5,0.5,1,0.6l1.3,0.5l-7.4,8.2c-1.5,1.7-2.7,2.8-3.7,3.3
	c-1,0.5-1.9,0.6-2.9,0.3c-0.8-0.3-1.3-0.8-1.5-1.4c-0.3-0.7-0.2-1.4,0.1-2.3c0.3-0.8,0.8-1.5,1.5-2.1c0.7-0.6,1.5-1,2.5-1.2
	c1.1-0.2,2.5-0.1,4,0.3c0.6,0.2,1.1,0.2,1.4,0.1c0.5-0.1,0.7-0.4,0.9-0.8c0.1-0.4,0.1-0.8-0.2-1.1c-0.3-0.4-0.7-0.7-1.2-0.9
	c-1.2-0.4-2.5-0.6-3.9-0.6c-1.4,0.1-2.7,0.4-3.8,0.9c-2.1,1-3.5,2.5-4.2,4.6c-0.6,1.6-0.5,3,0.1,4.3c0.6,1.3,1.7,2.2,3.2,2.8
	c2.1,0.8,4.2,0.5,6.3-0.9c0.6-0.4,1.1-0.8,1.7-1.3c0.5-0.5,1.4-1.5,2.8-3L61.2,212z M85.1,223.8c-0.1,0-0.3,0-0.4,0l-1.6-0.2
	c-0.6-0.1-1-0.3-1.3-0.8c-0.5,0.4-1.1,0.6-1.7,0.5l-1.5-0.2c-0.9-0.1-1.6-0.5-2.1-1.2c-0.5-0.7-0.7-1.5-0.6-2.5c0.2-1.5,0.8-2.9,2-4
	c1.2-1.1,2.4-1.6,3.8-1.5c0.9,0.1,1.6,0.5,2.1,1.2l3.2-6c0.6-1.1,1.3-1.6,2.2-1.5c0.4,0,0.7,0.2,0.9,0.5c0.2,0.3,0.3,0.6,0.3,0.9
	c0,0.3-0.1,0.5-0.3,0.8l-0.2,0.3l-5.8,10.8l1.2,0.1c1.1,0.1,1.6,0.6,1.5,1.3c-0.1,0.5-0.3,0.9-0.7,1.1
	C85.9,223.7,85.5,223.8,85.1,223.8z M81.9,222.5l0.1,0.1c0.2,0.5,0.6,0.8,1.2,0.8l1.6,0.2c0.6,0.1,1.1,0,1.4-0.2
	c0.4-0.2,0.5-0.5,0.6-1c0.1-0.6-0.4-1-1.3-1.1l-1.5-0.2l6.1-11.4c0.1-0.3,0.2-0.5,0.2-0.8c0-0.3,0-0.5-0.2-0.7
	c-0.2-0.2-0.4-0.3-0.8-0.4c-0.8-0.1-1.4,0.4-1.9,1.4l-3.4,6.3l-0.1-0.2c-0.5-0.7-1.2-1.1-2.1-1.2c-1.2-0.1-2.5,0.3-3.6,1.4
	c-1.1,1.1-1.8,2.4-1.9,3.9c-0.1,1,0.1,1.8,0.5,2.4c0.4,0.6,1.1,1,1.9,1.1l1.5,0.2c0.5,0.1,1.1-0.1,1.6-0.6L81.9,222.5z M110.2,223.1
	c-0.3,0-0.5-0.1-0.7-0.2c-0.3-0.2-0.5-0.4-0.5-0.8c0-0.2,0-0.5,0.1-0.8l3.2-13.7c0.3-1.2,0.8-1.9,1.7-2c0.3-0.1,0.7,0,1,0.2
	c0.3,0.2,0.5,0.5,0.5,0.8c0,0.3,0,0.7-0.1,1.2l-1.3,5.5c0.7-0.5,1.2-0.8,1.7-0.8c0.8-0.1,1.5,0,2,0.3c0.6,0.4,0.9,0.9,1,1.6
	c0.1,0.4,0,0.9-0.1,1.4l-0.7,3.1l1.2-0.2c0.5-0.1,0.9,0,1.2,0.1c0.3,0.2,0.5,0.4,0.5,0.8c0.1,0.5,0,0.9-0.4,1.3
	c-0.3,0.3-0.8,0.6-1.5,0.7l-2.4,0.4c-0.5,0.1-1,0-1.4-0.2c-0.4-0.2-0.7-0.6-0.7-1c0-0.3,0-0.7,0.1-1.2l0.7-2.8
	c0.1-0.3,0.1-0.6,0.1-0.7c0-0.2-0.1-0.3-0.2-0.4c-0.1-0.1-0.4-0.1-0.6,0c-0.7,0.1-1.3,0.9-1.6,2.3l-0.8,3.4
	c-0.3,1.1-0.8,1.8-1.7,1.9C110.3,223.1,110.2,223.1,110.2,223.1z M114.1,205.8c-0.1,0-0.1,0-0.2,0c-0.7,0.1-1.2,0.7-1.5,1.8
	l-3.2,13.7c-0.1,0.3-0.1,0.6-0.1,0.8c0,0.3,0.2,0.5,0.4,0.6c0.2,0.2,0.5,0.2,0.8,0.2c0.8-0.1,1.3-0.7,1.5-1.7l0.8-3.4
	c0.3-1.5,0.9-2.3,1.8-2.4c0.3-0.1,0.6,0,0.8,0.1c0.2,0.1,0.3,0.3,0.4,0.5c0,0.2,0,0.4-0.1,0.8l-0.7,2.8c-0.1,0.4-0.1,0.8-0.1,1.1
	c0.1,0.4,0.3,0.7,0.6,0.9c0.4,0.2,0.8,0.3,1.3,0.2l2.4-0.4c0.6-0.1,1-0.3,1.3-0.6c0.3-0.3,0.4-0.7,0.3-1.1c0-0.3-0.2-0.5-0.4-0.6
	c-0.3-0.1-0.6-0.1-1.1-0.1l-1.5,0.2l0.8-3.4c0.1-0.5,0.1-0.9,0.1-1.3c-0.1-0.6-0.4-1.1-0.9-1.4c-0.5-0.3-1.1-0.4-1.9-0.3
	c-0.5,0.1-1.1,0.4-1.9,1l-0.2,0.2l1.4-6.1c0.1-0.5,0.2-0.9,0.1-1.1c0-0.3-0.2-0.5-0.4-0.6C114.5,205.9,114.3,205.8,114.1,205.8z
	 M74.1,222.6c-0.2,0-0.5,0-0.7-0.1l-3.3-0.7c-1.2-0.3-2.1-0.8-2.7-1.5c-0.5-0.8-0.7-1.7-0.4-2.9c0.3-1.5,1.1-2.7,2.4-3.6
	c1.3-0.9,2.6-1.2,4-0.9c1,0.2,1.8,0.7,2.3,1.4c0.5,0.7,0.7,1.5,0.5,2.4c-0.2,1.1-0.8,1.8-1.8,2.1c-0.5,0.2-1.3,0.2-2.3,0l-2.2-0.5
	c0,0.2,0,0.7,1.1,0.9l3.4,0.7c0.5,0.1,0.9,0.3,1.1,0.5c0.2,0.2,0.3,0.6,0.2,0.9c-0.1,0.5-0.4,0.9-0.8,1.1
	C74.7,222.5,74.4,222.6,74.1,222.6z M72.3,213c-1,0-1.9,0.3-2.8,0.9c-1.2,0.8-2,2-2.3,3.5c-0.2,1.1-0.1,2,0.4,2.8
	c0.5,0.7,1.3,1.2,2.5,1.4l3.3,0.7c0.6,0.1,1.1,0.1,1.5-0.1c0.4-0.2,0.6-0.5,0.7-0.9c0.1-0.3,0-0.6-0.2-0.8c-0.2-0.2-0.5-0.4-1-0.5
	l-3.4-0.7c-0.9-0.2-1.3-0.6-1.2-1.3l0-0.1l2.4,0.5c0.9,0.2,1.6,0.2,2.1,0c0.9-0.3,1.5-1,1.7-2c0.2-0.8,0-1.6-0.5-2.2
	c-0.5-0.6-1.2-1.1-2.2-1.3C73,213,72.7,213,72.3,213z M80.4,220.8c-0.1,0-0.1,0-0.2,0l-0.4,0c-0.4,0-0.6-0.2-0.8-0.4
	c-0.2-0.2-0.2-0.5-0.2-0.9c0.1-0.8,0.4-1.5,1.1-2.2c0.6-0.6,1.3-0.9,1.9-0.9c0.3,0,0.6,0.2,0.8,0.4c0.2,0.2,0.3,0.5,0.3,0.7
	c0,0.2-0.1,0.4-0.2,0.6l-1.1,2.1C81.3,220.6,80.9,220.8,80.4,220.8z M81.6,216.6c-0.5,0-1.1,0.3-1.6,0.8c-0.6,0.6-0.9,1.3-1,2.1
	c0,0.3,0,0.6,0.1,0.7c0.1,0.2,0.3,0.3,0.6,0.3l0.4,0c0.5,0.1,0.8-0.1,1-0.5l1.1-2.1c0.1-0.2,0.2-0.4,0.2-0.6c0-0.2,0-0.4-0.2-0.5
	c-0.2-0.2-0.4-0.3-0.7-0.3C81.7,216.6,81.6,216.6,81.6,216.6z M123.5,219.7c-0.6,0-1.1-0.1-1.6-0.4c-0.8-0.4-1.4-1.3-1.7-2.4
	c-0.4-1.5-0.2-2.9,0.5-4.3c0.7-1.4,1.8-2.2,3.2-2.6c1-0.3,1.9-0.2,2.7,0.1c0.8,0.4,1.3,1,1.5,1.9c0.3,1.1,0.1,2-0.7,2.7
	c-0.4,0.4-1.1,0.8-2,1l-2.2,0.6c0.1,0.2,0.3,0.6,1.4,0.3l3.4-0.9c0.7-0.2,1.2-0.1,1.6,0.2c0-0.3-0.1-0.6-0.1-1l0.3-13
	c0-1,0.4-1.7,1.2-2c0.3-0.1,0.7-0.1,1,0c0.3,0.1,0.5,0.4,0.7,0.7c0.1,0.2,0.1,0.5,0.1,0.9l0,0.3l-0.2,12.1l1-0.4
	c0.5-0.2,0.9-0.2,1.2-0.2c0.3,0.1,0.6,0.3,0.7,0.7c0.2,0.5,0.2,0.9-0.1,1.3c-0.2,0.4-0.7,0.7-1.3,1l-2,0.8c-0.6,0.2-1.1,0.3-1.5,0.1
	c-0.3-0.1-0.5-0.2-0.7-0.5c0.1,0.4,0,0.8-0.3,1.1c-0.3,0.4-0.7,0.6-1.4,0.8l-3.2,0.9C124.5,219.7,124,219.7,123.5,219.7z
	 M125.2,210.1c-0.4,0-0.8,0.1-1.2,0.2c-1.3,0.4-2.4,1.2-3.1,2.5c-0.7,1.3-0.8,2.7-0.5,4.1c0.3,1.1,0.8,1.9,1.6,2.3
	c0.8,0.4,1.7,0.5,2.9,0.1l3.2-0.9c0.6-0.2,1-0.4,1.3-0.7c0.3-0.3,0.3-0.7,0.2-1.1c-0.2-0.6-0.7-0.8-1.6-0.6l-3.4,0.9
	c-0.9,0.2-1.5,0.1-1.7-0.6l0-0.1l2.4-0.6c0.9-0.2,1.5-0.6,1.9-1c0.7-0.7,0.9-1.5,0.6-2.5c-0.2-0.8-0.7-1.4-1.4-1.8
	C126.1,210.2,125.7,210.1,125.2,210.1z M131.5,200.1c-0.1,0-0.3,0-0.4,0.1c-0.7,0.3-1.1,0.8-1.1,1.8l0,0.3l-0.2,12.7
	c0,0.7,0.1,1.1,0.1,1.2c0.2,0.4,0.4,0.7,0.8,0.8c0.4,0.1,0.8,0.1,1.4-0.1l2-0.8c0.6-0.2,1-0.5,1.2-0.9c0.2-0.3,0.2-0.7,0.1-1.1
	c-0.1-0.3-0.3-0.5-0.6-0.5c-0.3-0.1-0.6,0-1.1,0.2l-1.3,0.5l0-0.2l0.2-12.6c0-0.3,0-0.6-0.1-0.8c-0.1-0.3-0.3-0.4-0.5-0.6
	C131.8,200.1,131.6,200.1,131.5,200.1z M72.8,216.6c-0.2,0-0.4,0-0.7-0.1l-1.4-0.3l0.1-0.1c0.6-0.7,1.3-1,2-0.8
	c0.7,0.2,0.8,0.6,0.8,0.9c0,0.1-0.1,0.3-0.2,0.3C73.2,216.6,73,216.6,72.8,216.6z M71,216.1l1.1,0.2c0.7,0.1,1,0.1,1.1,0
	c0.1,0,0.1-0.1,0.1-0.2c0-0.2,0-0.5-0.6-0.7C72.1,215.3,71.5,215.5,71,216.1z M137,214.8c-0.2,0-0.3,0-0.5-0.1
	c-0.5-0.1-0.8-0.4-1-0.9c-0.1-0.2-0.2-0.7-0.2-1.3l-0.4-13c0-1,0.3-1.7,1.1-2c0.3-0.1,0.7-0.2,1,0c0.3,0.1,0.6,0.3,0.7,0.6
	c0.1,0.2,0.2,0.5,0.2,0.8l0,0.3l0.4,12.1l1-0.4c1-0.4,1.6-0.3,1.9,0.4c0.2,0.5,0.2,0.9,0,1.3c-0.2,0.4-0.6,0.8-1.2,1l-1.9,0.9
	C137.6,214.7,137.3,214.8,137,214.8z M136.6,197.6c-0.2,0-0.3,0-0.5,0.1c-0.7,0.3-1,0.9-1,1.8l0,0.3l0.4,12.7c0,0.7,0.1,1.1,0.2,1.2
	c0.2,0.4,0.5,0.6,0.8,0.7c0.4,0.1,0.9,0,1.4-0.2l1.9-0.9c0.6-0.2,0.9-0.6,1.1-0.9c0.2-0.4,0.2-0.7,0-1.1c-0.3-0.6-0.8-0.7-1.7-0.3
	l-1.3,0.6l0-0.2l-0.4-12.6c0-0.3-0.1-0.6-0.2-0.8c-0.1-0.3-0.3-0.4-0.6-0.5C136.8,197.6,136.7,197.6,136.6,197.6z M123,214.2l0-0.2
	c0.2-0.9,0.7-1.5,1.4-1.7c0.7-0.2,1,0.1,1.1,0.5c0,0.1,0,0.3,0,0.4c-0.1,0.2-0.5,0.4-1.1,0.6L123,214.2z M124.8,212.6
	c-0.1,0-0.2,0-0.3,0c-0.6,0.2-1,0.6-1.2,1.3l1.1-0.3c0.7-0.2,0.9-0.4,1-0.5c0-0.1,0-0.1,0-0.2C125.3,212.8,125.2,212.6,124.8,212.6z
	 M101.3,212.9v-0.1c0-0.7,0.3-1.4,1-2c0.7-0.6,1.5-0.9,2.3-1c0.6,0,1,0,1.4,0.3c0.4,0.2,0.6,0.5,0.6,0.9c0,0.5-0.2,0.9-0.6,1.2
	c-0.4,0.3-1,0.4-1.8,0.5L101.3,212.9z M105,210c-0.1,0-0.2,0-0.2,0c-0.8,0.1-1.6,0.4-2.2,0.9c-0.6,0.5-0.9,1.1-1,1.7l2.7-0.2
	c0.8-0.1,1.4-0.2,1.7-0.5c0.4-0.2,0.5-0.6,0.5-1c0-0.3-0.2-0.6-0.5-0.8C105.7,210.1,105.4,210,105,210z M64.2,211.3
	c-0.4,0-0.9-0.1-1.5-0.3l-0.5-0.1l0.1-0.1l3.3-3.6l0.3,0.1c1,0.4,1.4,1.1,1,2.2c-0.3,0.9-1,1.5-2.1,1.8
	C64.6,211.3,64.4,211.3,64.2,211.3z M62.5,210.8l0.2,0c0.8,0.2,1.5,0.3,2,0.2c1-0.2,1.6-0.8,1.9-1.6c0.4-1,0.1-1.6-0.8-1.9l-0.2-0.1
	L62.5,210.8z"/>
</svg>
