<?xml version="1.0" standalone="no"?>
<!DOCTYPE svg PUBLIC "-//W3C//DTD SVG 20010904//EN"
 "http://www.w3.org/TR/2001/REC-SVG-20010904/DTD/svg10.dtd">
<svg version="1.0" xmlns="http://www.w3.org/2000/svg"
 width="260.000000pt" height="260.000000pt" viewBox="0 0 260.000000 260.000000"
 preserveAspectRatio="xMidYMid meet">
<metadata>
Created by potrace 1.11, written by Peter Selinger 2001-2013
</metadata>
<g transform="translate(0.000000,260.000000) scale(0.100000,-0.100000)"
fill="#000000" stroke="none">
<path d="M1132 2579 c-223 -26 -378 -111 -442 -244 -17 -36 -25 -72 -28 -131
-5 -94 14 -169 74 -301 l35 -77 -45 -44 -44 -45 -46 39 -46 38 47 84 c49 92
48 92 -44 20 l-61 -48 -123 115 c-67 63 -125 115 -129 115 -11 0 -112 -120
-108 -129 2 -5 60 -55 131 -111 70 -56 127 -106 127 -110 0 -5 -20 -38 -45
-73 -105 -150 -165 -326 -167 -482 0 -89 17 -205 30 -205 4 0 51 19 105 42 93
40 98 43 93 67 -3 14 -9 91 -12 171 -8 166 7 270 52 369 l26 60 53 -36 54 -35
-20 -46 c-33 -76 -51 -171 -50 -267 1 -173 61 -328 179 -456 344 -373 959
-296 1191 150 55 107 74 185 74 311 1 115 -17 199 -59 282 -14 27 -22 53 -19
58 3 4 27 22 54 39 37 22 52 27 59 18 22 -27 72 -138 93 -207 39 -124 32 -296
-17 -423 -3 -10 26 -24 107 -52 92 -31 113 -36 120 -24 6 8 8 73 6 149 -3 113
-8 149 -31 220 -33 100 -87 207 -162 321 -30 46 -54 85 -53 88 0 3 60 49 134
101 74 52 135 99 135 104 0 4 -23 38 -52 75 -29 36 -53 68 -55 71 -2 2 -57
-49 -122 -114 -84 -84 -123 -116 -132 -110 -8 4 -42 30 -77 58 l-63 50 8 46
c14 82 7 191 -16 252 -78 202 -352 300 -719 257z m413 -43 c299 -83 379 -296
243 -648 l-29 -78 38 -44 c43 -50 41 -51 123 23 l55 49 -22 46 c-26 53 -23 56
19 21 16 -14 33 -25 37 -25 3 0 59 50 124 111 65 61 119 110 121 108 1 -2 20
-26 41 -52 22 -28 34 -51 29 -56 -5 -5 -66 -50 -136 -101 -71 -50 -128 -94
-128 -98 0 -3 32 -54 71 -114 129 -198 177 -332 185 -513 3 -60 1 -116 -4
-123 -7 -11 -55 1 -168 42 -7 3 -5 26 7 73 25 97 25 247 -1 343 -22 78 -92
231 -115 250 -10 9 -30 0 -84 -36 -39 -26 -71 -48 -71 -49 0 -2 13 -31 30 -66
43 -94 60 -171 60 -279 0 -117 -17 -189 -72 -300 -81 -166 -253 -301 -445
-351 -97 -25 -250 -27 -346 -5 -325 76 -553 369 -534 690 5 85 24 163 60 247
l16 37 -69 46 c-38 25 -72 46 -75 46 -12 0 -58 -108 -76 -178 -22 -85 -29
-253 -16 -387 l7 -80 -77 -32 c-42 -18 -78 -31 -81 -29 -11 12 -22 90 -22 161
0 154 68 349 172 490 24 33 47 65 51 72 5 7 -42 50 -128 118 -74 59 -135 109
-135 111 0 2 19 25 41 49 l42 45 123 -116 123 -115 37 27 37 28 -21 -41 -22
-41 63 -56 62 -55 56 61 55 61 -48 111 c-56 131 -72 199 -65 281 13 169 147
285 382 331 98 19 398 13 480 -10z m362 -610 l42 -84 -51 -41 c-28 -22 -54
-41 -58 -41 -3 0 -17 11 -30 25 l-24 25 23 63 c13 34 28 79 33 100 6 20 13 37
17 37 4 0 25 -38 48 -84z"/>
<path d="M1132 2530 c-130 -18 -236 -65 -305 -136 -36 -36 -46 -53 -41 -68 14
-48 67 -148 103 -196 51 -68 129 -122 101 -70 -18 34 -28 111 -19 143 13 47
57 86 114 102 123 34 324 26 405 -15 71 -36 100 -109 77 -195 -8 -28 -16 -57
-18 -65 -6 -23 50 -17 106 11 53 26 165 124 165 144 0 7 -9 42 -20 78 -38 122
-141 208 -297 247 -90 24 -276 33 -371 20z"/>
<path d="M1130 2286 c-109 -24 -143 -74 -121 -182 13 -67 34 -104 59 -104 9 1
44 7 77 15 79 19 181 19 261 -1 60 -15 66 -15 83 0 23 21 41 88 41 156 0 96
-68 131 -253 129 -51 0 -117 -6 -147 -13z m312 -29 c69 -29 80 -75 47 -190
-10 -38 -12 -39 -47 -34 -20 2 -65 10 -100 18 -51 10 -76 10 -140 -1 -157 -26
-149 -27 -161 17 -6 21 -11 61 -11 89 0 74 26 94 160 118 50 9 216 -2 252 -17z"/>
<path d="M730 2200 c-15 -91 4 -190 59 -303 l39 -82 -59 -74 c-98 -122 -142
-234 -155 -391 -21 -244 142 -500 391 -616 231 -107 492 -74 686 88 159 132
260 357 244 543 -14 166 -48 256 -139 373 l-58 73 20 42 c19 41 62 197 62 225
0 8 -22 -6 -50 -31 -99 -89 -159 -102 -323 -68 -145 30 -183 32 -281 15 -140
-24 -216 -8 -300 67 -33 29 -106 156 -106 185 0 7 -4 15 -9 18 -5 4 -15 -25
-21 -64z m325 -469 c28 -16 59 -39 70 -52 19 -22 19 -22 -27 3 -27 15 -48 23
-48 18 0 -15 64 -92 101 -122 44 -35 105 -46 158 -28 34 11 43 10 70 -6 37
-22 36 -32 -10 -59 -27 -16 -52 -20 -119 -20 -76 0 -91 3 -140 30 -81 45 -114
97 -118 191 -2 41 0 74 4 74 5 0 32 -13 59 -29z m689 -138 c-20 -88 -84 -145
-134 -120 -34 18 -49 45 -30 57 9 6 18 6 24 0 20 -20 54 -9 85 26 17 19 28 40
25 46 -4 7 -2 8 4 4 7 -4 12 -2 12 3 0 6 5 11 10 11 6 0 8 -11 4 -27z m-753
-202 c368 -90 550 -115 712 -99 44 4 82 7 83 5 7 -7 -25 -118 -45 -161 l-23
-47 -42 45 c-59 63 -115 88 -207 94 -112 7 -213 -22 -394 -113 l-150 -75 -32
32 c-29 28 -79 115 -71 124 9 8 189 74 205 74 17 1 17 1 -1 11 -12 8 -56 9
-131 4 l-112 -7 -7 32 c-9 47 -7 130 3 130 5 0 100 -22 212 -49z"/>
<path d="M2135 1964 c-251 -220 -272 -241 -255 -258 13 -13 22 -10 79 35 l65
50 18 -23 c40 -51 120 -228 140 -308 17 -71 20 -102 14 -195 -3 -60 -9 -124
-12 -141 -5 -28 -3 -32 23 -37 15 -4 38 -9 50 -13 19 -5 22 -1 29 41 21 143
-60 392 -199 609 -50 78 -50 78 -29 95 11 9 70 54 131 101 61 47 111 90 111
96 0 6 -10 20 -22 32 l-23 21 -120 -105z"/>
<path d="M251 2012 l-20 -29 205 -158 c158 -121 208 -155 217 -146 9 9 -3 26
-53 70 -60 54 -64 60 -50 77 14 18 14 18 -2 5 -22 -16 -15 -21 -159 111 -58
54 -109 98 -112 98 -3 0 -15 -13 -26 -28z"/>
<path d="M457 1718 c-123 -187 -182 -372 -175 -548 2 -54 7 -102 11 -106 4 -4
24 1 45 10 l39 18 -14 51 c-47 174 -10 374 102 561 45 74 39 85 -8 14z"/>
<path d="M1961 864 c-34 -58 -61 -108 -61 -110 0 -3 12 -16 28 -30 l27 -26
-36 20 -37 20 -36 -37 c-20 -21 -34 -40 -30 -43 3 -4 -22 -24 -56 -45 -34 -21
-84 -53 -111 -70 -33 -21 -73 -37 -115 -44 -36 -6 -84 -21 -108 -33 -34 -17
-50 -20 -82 -13 -63 14 -179 5 -202 -16 -19 -17 -20 -17 -36 8 -36 55 -198 99
-233 64 -7 -7 -12 -1 -16 20 -6 28 -94 122 -170 182 l-29 22 -75 -74 c-41 -41
-88 -91 -105 -112 l-31 -38 34 -35 c18 -19 37 -34 43 -34 6 0 27 16 47 36 l37
36 -14 -63 -14 -64 47 -42 c26 -24 50 -43 54 -43 4 0 10 33 14 74 l6 74 30
-11 c21 -8 37 -8 58 0 l29 10 -14 -33 c-18 -43 -18 -118 1 -153 16 -33 86 -70
144 -78 57 -8 107 20 139 77 25 45 27 46 42 28 10 -13 34 -22 70 -26 43 -6 56
-11 58 -26 4 -17 -1 -18 -67 -14 l-71 5 0 -38 c0 -33 3 -38 28 -43 118 -22
189 -13 217 27 8 12 15 41 15 64 0 53 -26 83 -72 83 -48 0 -78 10 -78 26 0 19
124 20 140 2 5 -7 20 -26 32 -41 20 -27 24 -29 87 -25 54 2 66 0 66 -12 0 -10
-20 -19 -68 -29 l-68 -14 7 -31 c3 -17 9 -34 13 -37 10 -11 130 10 177 30 25
12 49 30 55 45 15 32 4 91 -23 118 -18 18 -28 19 -84 13 -53 -5 -64 -4 -64 8
0 16 48 37 84 37 39 0 49 14 38 54 -6 20 -9 36 -7 36 1 0 37 -54 80 -120 42
-66 79 -120 82 -120 14 0 93 52 93 60 0 5 -9 24 -19 41 l-20 32 55 34 c30 19
54 38 54 41 0 4 -9 22 -20 39 l-20 33 -57 -35 c-53 -32 -73 -36 -73 -14 0 5
25 25 56 45 55 35 55 36 39 60 -29 45 -1 24 87 -63 l88 -87 40 39 c22 21 40
42 40 46 0 4 -31 38 -70 75 -38 37 -70 70 -70 73 0 3 9 21 20 39 l20 33 93
-50 92 -50 28 48 c15 27 27 51 27 54 0 3 -39 27 -87 53 -49 26 -90 48 -92 50
-2 2 6 18 17 36 l21 32 -37 23 c-20 12 -42 23 -49 23 -6 0 -39 -48 -72 -106z
m-1245 -295 c13 -15 16 -24 8 -36 -16 -25 -28 -26 -55 -4 -23 19 -24 19 -5 40
24 26 28 26 52 0z m265 -169 c25 -14 25 -60 -2 -94 -24 -30 -41 -33 -64 -9
-20 19 -14 67 12 95 19 21 27 22 54 8z m140 -51 c-9 -23 -10 -23 -10 -2 -1 12
2 30 6 40 6 15 8 15 11 2 1 -8 -2 -26 -7 -40z"/>
<path d="M400 908 c-69 -36 -110 -83 -110 -128 0 -34 43 -120 75 -150 25 -23
25 -23 65 -5 22 10 40 21 40 25 0 3 -11 21 -25 40 -31 42 -33 85 -4 100 38 21
62 8 89 -45 14 -27 26 -52 27 -53 1 -2 22 9 48 24 52 30 53 37 14 119 -28 59
-69 96 -115 102 -31 4 -52 -2 -104 -29z"/>
</g>
</svg>
